<svg xmlns="http://www.w3.org/2000/svg" width="1200" height="220" viewBox="0 0 1200 220" role="img" aria-labelledby="activity-title">
  <title id="activity-title">Contribution activity since Dec 2025</title>
  <style>
    .bg { fill: #0a0d13; stroke: #1d2129; stroke-width: 1; }
    .ink { fill: #dfe4eb; }
    .muted { fill: #8b9099; }
    .sub-tan { fill: #6d7480; }
    .dot { fill: #e87252; }
    .serif { font-family: "Charter", "Iowan Old Style", "Times New Roman", Georgia, serif; }
    .mono { font-family: ui-monospace, "SF Mono", Consolas, "Liberation Mono", monospace; }
    .rule { stroke: #dfe4eb; stroke-width: 1; }
    .grid { stroke: #dfe4eb; stroke-opacity: 0.12; stroke-dasharray: 2 4; }
    .line { fill: none; stroke: #dfe4eb; stroke-width: 1.4; }
  </style>

  <rect class="bg" x="0.5" y="0.5" width="1199" height="219" rx="6"/>

  <!-- Header -->
  <text x="48" y="44" class="serif ink" font-size="18" font-weight="500">Figure I. <tspan font-style="italic">Contribution activity, since Dec 2025.</tspan></text>
  <text x="1152" y="44" class="mono muted" font-size="11" letter-spacing="2" text-anchor="end">WEEKLY TOTALS  ·  N = 29</text>
  <line class="rule" x1="48" y1="58" x2="1152" y2="58"/>

  <!-- Grid -->
  <line class="grid" x1="48" y1="90" x2="1152" y2="90"/>
  <line class="grid" x1="48" y1="130" x2="1152" y2="130"/>
  <line class="grid" x1="48" y1="170" x2="1152" y2="170"/>

  <!-- Area fill -->
  <defs>
    <linearGradient id="inkFill" x1="0" y1="0" x2="0" y2="1">
      <stop offset="0%" stop-color="#dfe4eb" stop-opacity="0.20"/>
      <stop offset="100%" stop-color="#dfe4eb" stop-opacity="0"/>
    </linearGradient>
  </defs>
  <path d="M48.0,141.8 L87.4,162.4 L126.9,93.9 L166.3,135.8 L205.7,167.3 L245.1,172.1 L284.6,173.3 L324.0,170.9 L363.4,146.4 L402.9,101.2 L442.3,117.0 L481.7,133.3 L521.1,70.0 L560.6,86.7 L600.0,108.5 L639.4,75.2 L678.9,134.5 L718.3,114.5 L757.7,163.9 L797.1,149.7 L836.6,77.9 L876.0,159.4 L915.4,159.7 L954.9,168.5 L994.3,142.7 L1033.7,159.7 L1073.1,157.0 L1112.6,134.5 L1152.0,142.4 L1152.0,180 L48.0,180 Z" fill="url(#inkFill)"/>
  <path class="line" d="M48.0,141.8 L87.4,162.4 L126.9,93.9 L166.3,135.8 L205.7,167.3 L245.1,172.1 L284.6,173.3 L324.0,170.9 L363.4,146.4 L402.9,101.2 L442.3,117.0 L481.7,133.3 L521.1,70.0 L560.6,86.7 L600.0,108.5 L639.4,75.2 L678.9,134.5 L718.3,114.5 L757.7,163.9 L797.1,149.7 L836.6,77.9 L876.0,159.4 L915.4,159.7 L954.9,168.5 L994.3,142.7 L1033.7,159.7 L1073.1,157.0 L1112.6,134.5 L1152.0,142.4"/>

  <circle class="dot" cx="521.1" cy="70.0" r="2.5"/>
  <circle class="dot" cx="639.4" cy="75.2" r="2.5"/>
  <circle class="dot" cx="1152.0" cy="142.4" r="3.5" stroke="#0a0d13" stroke-width="2"/>

  <!-- X axis -->
  <text x="48" y="200" class="mono sub-tan" font-size="10" letter-spacing="1">DEC</text>
  <text x="232" y="200" class="mono sub-tan" font-size="10" letter-spacing="1">JAN</text>
  <text x="416" y="200" class="mono sub-tan" font-size="10" letter-spacing="1">MAR</text>
  <text x="600" y="200" class="mono sub-tan" font-size="10" letter-spacing="1" text-anchor="middle">APR</text>
  <text x="784" y="200" class="mono sub-tan" font-size="10" letter-spacing="1">MAY</text>
  <text x="968" y="200" class="mono sub-tan" font-size="10" letter-spacing="1">JUN</text>
  <text x="1152" y="200" class="mono sub-tan" font-size="10" letter-spacing="1" text-anchor="end">TODAY</text>
</svg>
