<svg xmlns="http://www.w3.org/2000/svg" width="1200" height="220" viewBox="0 0 1200 220" role="img" aria-labelledby="activity-title">
  <title id="activity-title">Contribution activity since Dec 2025</title>
  <style>
    .bg { fill: #fcfaf5; stroke: #eae6da; stroke-width: 1; }
    .ink { fill: #141414; }
    .muted { fill: #555555; }
    .sub-tan { fill: #80735a; }
    .dot { fill: #c94a2a; }
    .serif { font-family: "Charter", "Iowan Old Style", "Times New Roman", Georgia, serif; }
    .mono { font-family: ui-monospace, "SF Mono", Consolas, "Liberation Mono", monospace; }
    .rule { stroke: #141414; stroke-width: 1; }
    .grid { stroke: #141414; stroke-opacity: 0.06; stroke-dasharray: 2 4; }
    .line { fill: none; stroke: #141414; stroke-width: 1.4; }
  </style>

  <rect class="bg" x="0.5" y="0.5" width="1199" height="219" rx="6"/>

  <!-- Header -->
  <text x="48" y="44" class="serif ink" font-size="18" font-weight="500">Figure I. <tspan font-style="italic">Contribution activity, since Dec 2025.</tspan></text>
  <text x="1152" y="44" class="mono muted" font-size="11" letter-spacing="2" text-anchor="end">WEEKLY TOTALS  ·  N = 36</text>
  <line class="rule" x1="48" y1="58" x2="1152" y2="58"/>

  <!-- Grid -->
  <line class="grid" x1="48" y1="90" x2="1152" y2="90"/>
  <line class="grid" x1="48" y1="130" x2="1152" y2="130"/>
  <line class="grid" x1="48" y1="170" x2="1152" y2="170"/>

  <!-- Area fill -->
  <defs>
    <linearGradient id="inkFill" x1="0" y1="0" x2="0" y2="1">
      <stop offset="0%" stop-color="#141414" stop-opacity="0.18"/>
      <stop offset="100%" stop-color="#141414" stop-opacity="0"/>
    </linearGradient>
  </defs>
  <path d="M48.0,132.7 L79.5,93.3 L111.1,160.6 L142.6,146.1 L174.2,168.5 L205.7,168.8 L237.3,175.2 L268.8,167.9 L300.3,129.1 L331.9,106.1 L363.4,127.3 L395.0,124.2 L426.5,75.5 L458.1,70.0 L489.6,103.0 L521.1,81.8 L552.7,132.1 L584.2,140.6 L615.8,161.8 L647.3,136.7 L678.9,93.9 L710.4,159.1 L741.9,161.2 L773.5,163.0 L805.0,148.2 L836.6,162.4 L868.1,143.0 L899.7,145.2 L931.2,141.2 L962.7,153.6 L994.3,160.0 L1025.8,150.6 L1057.4,167.0 L1088.9,165.5 L1120.5,156.4 L1152.0,95.5 L1152.0,180 L48.0,180 Z" fill="url(#inkFill)"/>
  <path class="line" d="M48.0,132.7 L79.5,93.3 L111.1,160.6 L142.6,146.1 L174.2,168.5 L205.7,168.8 L237.3,175.2 L268.8,167.9 L300.3,129.1 L331.9,106.1 L363.4,127.3 L395.0,124.2 L426.5,75.5 L458.1,70.0 L489.6,103.0 L521.1,81.8 L552.7,132.1 L584.2,140.6 L615.8,161.8 L647.3,136.7 L678.9,93.9 L710.4,159.1 L741.9,161.2 L773.5,163.0 L805.0,148.2 L836.6,162.4 L868.1,143.0 L899.7,145.2 L931.2,141.2 L962.7,153.6 L994.3,160.0 L1025.8,150.6 L1057.4,167.0 L1088.9,165.5 L1120.5,156.4 L1152.0,95.5"/>

  <circle class="dot" cx="458.1" cy="70.0" r="2.5"/>
  <circle class="dot" cx="426.5" cy="75.5" r="2.5"/>
  <circle class="dot" cx="1152.0" cy="95.5" r="3.5" stroke="#fcfaf5" stroke-width="2"/>

  <!-- X axis -->
  <text x="48" y="200" class="mono sub-tan" font-size="10" letter-spacing="1">DEC</text>
  <text x="232" y="200" class="mono sub-tan" font-size="10" letter-spacing="1">FEB</text>
  <text x="416" y="200" class="mono sub-tan" font-size="10" letter-spacing="1">MAR</text>
  <text x="600" y="200" class="mono sub-tan" font-size="10" letter-spacing="1" text-anchor="middle">MAY</text>
  <text x="784" y="200" class="mono sub-tan" font-size="10" letter-spacing="1">JUN</text>
  <text x="968" y="200" class="mono sub-tan" font-size="10" letter-spacing="1">JUL</text>
  <text x="1152" y="200" class="mono sub-tan" font-size="10" letter-spacing="1" text-anchor="end">TODAY</text>
</svg>
