<svg xmlns="http://www.w3.org/2000/svg" width="1200" height="220" viewBox="0 0 1200 220" role="img" aria-labelledby="activity-title">
  <title id="activity-title">Contribution activity since Dec 2025</title>
  <style>
    .bg { fill: #0a0d13; stroke: #1d2129; stroke-width: 1; }
    .ink { fill: #dfe4eb; }
    .muted { fill: #8b9099; }
    .sub-tan { fill: #6d7480; }
    .dot { fill: #e87252; }
    .serif { font-family: "Charter", "Iowan Old Style", "Times New Roman", Georgia, serif; }
    .mono { font-family: ui-monospace, "SF Mono", Consolas, "Liberation Mono", monospace; }
    .rule { stroke: #dfe4eb; stroke-width: 1; }
    .grid { stroke: #dfe4eb; stroke-opacity: 0.12; stroke-dasharray: 2 4; }
    .line { fill: none; stroke: #dfe4eb; stroke-width: 1.4; }
  </style>

  <rect class="bg" x="0.5" y="0.5" width="1199" height="219" rx="6"/>

  <!-- Header -->
  <text x="48" y="44" class="serif ink" font-size="18" font-weight="500">Figure I. <tspan font-style="italic">Contribution activity, since Dec 2025.</tspan></text>
  <text x="1152" y="44" class="mono muted" font-size="11" letter-spacing="2" text-anchor="end">WEEKLY TOTALS  ·  N = 36</text>
  <line class="rule" x1="48" y1="58" x2="1152" y2="58"/>

  <!-- Grid -->
  <line class="grid" x1="48" y1="90" x2="1152" y2="90"/>
  <line class="grid" x1="48" y1="130" x2="1152" y2="130"/>
  <line class="grid" x1="48" y1="170" x2="1152" y2="170"/>

  <!-- Area fill -->
  <defs>
    <linearGradient id="inkFill" x1="0" y1="0" x2="0" y2="1">
      <stop offset="0%" stop-color="#dfe4eb" stop-opacity="0.20"/>
      <stop offset="100%" stop-color="#dfe4eb" stop-opacity="0"/>
    </linearGradient>
  </defs>
  <path d="M48.0,152.2 L79.5,158.6 L111.1,107.7 L142.6,147.1 L174.2,158.9 L205.7,173.0 L237.3,174.4 L268.8,173.8 L300.3,156.4 L331.9,106.4 L363.4,126.5 L395.0,144.7 L426.5,102.1 L458.1,87.4 L489.6,113.1 L521.1,70.0 L552.7,146.5 L584.2,121.4 L615.8,165.3 L647.3,153.8 L678.9,90.3 L710.4,159.7 L741.9,163.7 L773.5,168.2 L805.0,148.2 L836.6,162.1 L868.1,163.9 L899.7,139.3 L931.2,147.6 L962.7,156.4 L994.3,159.7 L1025.8,152.4 L1057.4,162.1 L1088.9,174.1 L1120.5,161.3 L1152.0,143.1 L1152.0,180 L48.0,180 Z" fill="url(#inkFill)"/>
  <path class="line" d="M48.0,152.2 L79.5,158.6 L111.1,107.7 L142.6,147.1 L174.2,158.9 L205.7,173.0 L237.3,174.4 L268.8,173.8 L300.3,156.4 L331.9,106.4 L363.4,126.5 L395.0,144.7 L426.5,102.1 L458.1,87.4 L489.6,113.1 L521.1,70.0 L552.7,146.5 L584.2,121.4 L615.8,165.3 L647.3,153.8 L678.9,90.3 L710.4,159.7 L741.9,163.7 L773.5,168.2 L805.0,148.2 L836.6,162.1 L868.1,163.9 L899.7,139.3 L931.2,147.6 L962.7,156.4 L994.3,159.7 L1025.8,152.4 L1057.4,162.1 L1088.9,174.1 L1120.5,161.3 L1152.0,143.1"/>

  <circle class="dot" cx="521.1" cy="70.0" r="2.5"/>
  <circle class="dot" cx="458.1" cy="87.4" r="2.5"/>
  <circle class="dot" cx="1152.0" cy="143.1" r="3.5" stroke="#0a0d13" stroke-width="2"/>

  <!-- X axis -->
  <text x="48" y="200" class="mono sub-tan" font-size="10" letter-spacing="1">DEC</text>
  <text x="232" y="200" class="mono sub-tan" font-size="10" letter-spacing="1">FEB</text>
  <text x="416" y="200" class="mono sub-tan" font-size="10" letter-spacing="1">MAR</text>
  <text x="600" y="200" class="mono sub-tan" font-size="10" letter-spacing="1" text-anchor="middle">APR</text>
  <text x="784" y="200" class="mono sub-tan" font-size="10" letter-spacing="1">JUN</text>
  <text x="968" y="200" class="mono sub-tan" font-size="10" letter-spacing="1">JUL</text>
  <text x="1152" y="200" class="mono sub-tan" font-size="10" letter-spacing="1" text-anchor="end">TODAY</text>
</svg>
