<svg xmlns="http://www.w3.org/2000/svg" width="1200" height="220" viewBox="0 0 1200 220" role="img" aria-labelledby="activity-title">
  <title id="activity-title">Contribution activity since Dec 2025</title>
  <style>
    .bg { fill: #fcfaf5; stroke: #eae6da; stroke-width: 1; }
    .ink { fill: #141414; }
    .muted { fill: #555555; }
    .sub-tan { fill: #80735a; }
    .dot { fill: #c94a2a; }
    .serif { font-family: "Charter", "Iowan Old Style", "Times New Roman", Georgia, serif; }
    .mono { font-family: ui-monospace, "SF Mono", Consolas, "Liberation Mono", monospace; }
    .rule { stroke: #141414; stroke-width: 1; }
    .grid { stroke: #141414; stroke-opacity: 0.06; stroke-dasharray: 2 4; }
    .line { fill: none; stroke: #141414; stroke-width: 1.4; }
  </style>

  <rect class="bg" x="0.5" y="0.5" width="1199" height="219" rx="6"/>

  <!-- Header -->
  <text x="48" y="44" class="serif ink" font-size="18" font-weight="500">Figure I. <tspan font-style="italic">Contribution activity, since Dec 2025.</tspan></text>
  <text x="1152" y="44" class="mono muted" font-size="11" letter-spacing="2" text-anchor="end">WEEKLY TOTALS  ·  N = 23</text>
  <line class="rule" x1="48" y1="58" x2="1152" y2="58"/>

  <!-- Grid -->
  <line class="grid" x1="48" y1="90" x2="1152" y2="90"/>
  <line class="grid" x1="48" y1="130" x2="1152" y2="130"/>
  <line class="grid" x1="48" y1="170" x2="1152" y2="170"/>

  <!-- Area fill -->
  <defs>
    <linearGradient id="inkFill" x1="0" y1="0" x2="0" y2="1">
      <stop offset="0%" stop-color="#141414" stop-opacity="0.18"/>
      <stop offset="100%" stop-color="#141414" stop-opacity="0"/>
    </linearGradient>
  </defs>
  <path d="M48.0,152.2 L98.2,158.6 L148.4,107.7 L198.5,147.1 L248.7,158.9 L298.9,173.0 L349.1,174.4 L399.3,173.8 L449.5,156.4 L499.6,106.4 L549.8,126.5 L600.0,144.7 L650.2,102.1 L700.4,87.4 L750.5,113.1 L800.7,70.0 L850.9,146.3 L901.1,120.0 L951.3,163.9 L1001.5,153.8 L1051.6,87.9 L1101.8,160.5 L1152.0,163.7 L1152.0,180 L48.0,180 Z" fill="url(#inkFill)"/>
  <path class="line" d="M48.0,152.2 L98.2,158.6 L148.4,107.7 L198.5,147.1 L248.7,158.9 L298.9,173.0 L349.1,174.4 L399.3,173.8 L449.5,156.4 L499.6,106.4 L549.8,126.5 L600.0,144.7 L650.2,102.1 L700.4,87.4 L750.5,113.1 L800.7,70.0 L850.9,146.3 L901.1,120.0 L951.3,163.9 L1001.5,153.8 L1051.6,87.9 L1101.8,160.5 L1152.0,163.7"/>

  <circle class="dot" cx="800.7" cy="70.0" r="2.5"/>
  <circle class="dot" cx="700.4" cy="87.4" r="2.5"/>
  <circle class="dot" cx="1152.0" cy="163.7" r="3.5" stroke="#fcfaf5" stroke-width="2"/>

  <!-- X axis -->
  <text x="48" y="200" class="mono sub-tan" font-size="10" letter-spacing="1">DEC</text>
  <text x="232" y="200" class="mono sub-tan" font-size="10" letter-spacing="1">JAN</text>
  <text x="416" y="200" class="mono sub-tan" font-size="10" letter-spacing="1">FEB</text>
  <text x="600" y="200" class="mono sub-tan" font-size="10" letter-spacing="1" text-anchor="middle">MAR</text>
  <text x="784" y="200" class="mono sub-tan" font-size="10" letter-spacing="1">APR</text>
  <text x="968" y="200" class="mono sub-tan" font-size="10" letter-spacing="1">MAY</text>
  <text x="1152" y="200" class="mono sub-tan" font-size="10" letter-spacing="1" text-anchor="end">TODAY</text>
</svg>
