<svg xmlns="http://www.w3.org/2000/svg" width="1200" height="220" viewBox="0 0 1200 220" role="img" aria-labelledby="activity-title">
  <title id="activity-title">Contribution activity since Dec 2025</title>
  <style>
    .bg { fill: #0a0d13; stroke: #1d2129; stroke-width: 1; }
    .ink { fill: #dfe4eb; }
    .muted { fill: #8b9099; }
    .sub-tan { fill: #6d7480; }
    .dot { fill: #e87252; }
    .serif { font-family: "Charter", "Iowan Old Style", "Times New Roman", Georgia, serif; }
    .mono { font-family: ui-monospace, "SF Mono", Consolas, "Liberation Mono", monospace; }
    .rule { stroke: #dfe4eb; stroke-width: 1; }
    .grid { stroke: #dfe4eb; stroke-opacity: 0.12; stroke-dasharray: 2 4; }
    .line { fill: none; stroke: #dfe4eb; stroke-width: 1.4; }
  </style>

  <rect class="bg" x="0.5" y="0.5" width="1199" height="219" rx="6"/>

  <!-- Header -->
  <text x="48" y="44" class="serif ink" font-size="18" font-weight="500">Figure I. <tspan font-style="italic">Contribution activity, since Dec 2025.</tspan></text>
  <text x="1152" y="44" class="mono muted" font-size="11" letter-spacing="2" text-anchor="end">WEEKLY TOTALS  ·  N = 41</text>
  <line class="rule" x1="48" y1="58" x2="1152" y2="58"/>

  <!-- Grid -->
  <line class="grid" x1="48" y1="90" x2="1152" y2="90"/>
  <line class="grid" x1="48" y1="130" x2="1152" y2="130"/>
  <line class="grid" x1="48" y1="170" x2="1152" y2="170"/>

  <!-- Area fill -->
  <defs>
    <linearGradient id="inkFill" x1="0" y1="0" x2="0" y2="1">
      <stop offset="0%" stop-color="#dfe4eb" stop-opacity="0.20"/>
      <stop offset="100%" stop-color="#dfe4eb" stop-opacity="0"/>
    </linearGradient>
  </defs>
  <path d="M48.0,141.8 L75.6,162.4 L103.2,93.9 L130.8,135.8 L158.4,167.3 L186.0,172.1 L213.6,173.3 L241.2,170.9 L268.8,146.4 L296.4,101.2 L324.0,117.0 L351.6,133.3 L379.2,70.0 L406.8,86.7 L434.4,108.5 L462.0,75.2 L489.6,134.5 L517.2,116.4 L544.8,164.8 L572.4,149.7 L600.0,80.3 L627.6,158.8 L655.2,159.7 L682.8,168.5 L710.4,143.3 L738.0,160.6 L765.6,157.0 L793.2,134.5 L820.8,142.4 L848.4,153.0 L876.0,153.6 L903.6,156.4 L931.2,160.9 L958.8,170.3 L986.4,158.8 L1014.0,127.0 L1041.6,82.1 L1069.2,81.8 L1096.8,125.2 L1124.4,114.5 L1152.0,73.6 L1152.0,180 L48.0,180 Z" fill="url(#inkFill)"/>
  <path class="line" d="M48.0,141.8 L75.6,162.4 L103.2,93.9 L130.8,135.8 L158.4,167.3 L186.0,172.1 L213.6,173.3 L241.2,170.9 L268.8,146.4 L296.4,101.2 L324.0,117.0 L351.6,133.3 L379.2,70.0 L406.8,86.7 L434.4,108.5 L462.0,75.2 L489.6,134.5 L517.2,116.4 L544.8,164.8 L572.4,149.7 L600.0,80.3 L627.6,158.8 L655.2,159.7 L682.8,168.5 L710.4,143.3 L738.0,160.6 L765.6,157.0 L793.2,134.5 L820.8,142.4 L848.4,153.0 L876.0,153.6 L903.6,156.4 L931.2,160.9 L958.8,170.3 L986.4,158.8 L1014.0,127.0 L1041.6,82.1 L1069.2,81.8 L1096.8,125.2 L1124.4,114.5 L1152.0,73.6"/>

  <circle class="dot" cx="379.2" cy="70.0" r="2.5"/>
  <circle class="dot" cx="462.0" cy="75.2" r="2.5"/>
  <circle class="dot" cx="1152.0" cy="73.6" r="3.5" stroke="#0a0d13" stroke-width="2"/>

  <!-- X axis -->
  <text x="48" y="200" class="mono sub-tan" font-size="10" letter-spacing="1">DEC</text>
  <text x="232" y="200" class="mono sub-tan" font-size="10" letter-spacing="1">FEB</text>
  <text x="416" y="200" class="mono sub-tan" font-size="10" letter-spacing="1">APR</text>
  <text x="600" y="200" class="mono sub-tan" font-size="10" letter-spacing="1" text-anchor="middle">MAY</text>
  <text x="784" y="200" class="mono sub-tan" font-size="10" letter-spacing="1">JUL</text>
  <text x="968" y="200" class="mono sub-tan" font-size="10" letter-spacing="1">AUG</text>
  <text x="1152" y="200" class="mono sub-tan" font-size="10" letter-spacing="1" text-anchor="end">TODAY</text>
</svg>
