<svg xmlns="http://www.w3.org/2000/svg" width="1200" height="220" viewBox="0 0 1200 220" role="img" aria-labelledby="activity-title">
  <title id="activity-title">Contribution activity since Dec 2025</title>
  <style>
    .bg { fill: #0a0d13; stroke: #1d2129; stroke-width: 1; }
    .ink { fill: #dfe4eb; }
    .muted { fill: #8b9099; }
    .sub-tan { fill: #6d7480; }
    .dot { fill: #e87252; }
    .serif { font-family: "Charter", "Iowan Old Style", "Times New Roman", Georgia, serif; }
    .mono { font-family: ui-monospace, "SF Mono", Consolas, "Liberation Mono", monospace; }
    .rule { stroke: #dfe4eb; stroke-width: 1; }
    .grid { stroke: #dfe4eb; stroke-opacity: 0.12; stroke-dasharray: 2 4; }
    .line { fill: none; stroke: #dfe4eb; stroke-width: 1.4; }
  </style>

  <rect class="bg" x="0.5" y="0.5" width="1199" height="219" rx="6"/>

  <!-- Header -->
  <text x="48" y="44" class="serif ink" font-size="18" font-weight="500">Figure I. <tspan font-style="italic">Contribution activity, since Dec 2025.</tspan></text>
  <text x="1152" y="44" class="mono muted" font-size="11" letter-spacing="2" text-anchor="end">WEEKLY TOTALS  ·  N = 30</text>
  <line class="rule" x1="48" y1="58" x2="1152" y2="58"/>

  <!-- Grid -->
  <line class="grid" x1="48" y1="90" x2="1152" y2="90"/>
  <line class="grid" x1="48" y1="130" x2="1152" y2="130"/>
  <line class="grid" x1="48" y1="170" x2="1152" y2="170"/>

  <!-- Area fill -->
  <defs>
    <linearGradient id="inkFill" x1="0" y1="0" x2="0" y2="1">
      <stop offset="0%" stop-color="#dfe4eb" stop-opacity="0.20"/>
      <stop offset="100%" stop-color="#dfe4eb" stop-opacity="0"/>
    </linearGradient>
  </defs>
  <path d="M48.0,152.2 L86.1,158.6 L124.1,107.7 L162.2,147.1 L200.3,158.9 L238.3,173.0 L276.4,174.4 L314.5,173.8 L352.6,156.4 L390.6,106.4 L428.7,126.5 L466.8,144.7 L504.8,102.1 L542.9,87.4 L581.0,113.1 L619.0,70.0 L657.1,146.5 L695.2,120.3 L733.2,163.9 L771.3,153.8 L809.4,87.9 L847.4,160.5 L885.5,163.7 L923.6,168.2 L961.7,147.9 L999.7,161.0 L1037.8,163.9 L1075.9,139.3 L1113.9,147.6 L1152.0,156.4 L1152.0,180 L48.0,180 Z" fill="url(#inkFill)"/>
  <path class="line" d="M48.0,152.2 L86.1,158.6 L124.1,107.7 L162.2,147.1 L200.3,158.9 L238.3,173.0 L276.4,174.4 L314.5,173.8 L352.6,156.4 L390.6,106.4 L428.7,126.5 L466.8,144.7 L504.8,102.1 L542.9,87.4 L581.0,113.1 L619.0,70.0 L657.1,146.5 L695.2,120.3 L733.2,163.9 L771.3,153.8 L809.4,87.9 L847.4,160.5 L885.5,163.7 L923.6,168.2 L961.7,147.9 L999.7,161.0 L1037.8,163.9 L1075.9,139.3 L1113.9,147.6 L1152.0,156.4"/>

  <circle class="dot" cx="619.0" cy="70.0" r="2.5"/>
  <circle class="dot" cx="542.9" cy="87.4" r="2.5"/>
  <circle class="dot" cx="1152.0" cy="156.4" r="3.5" stroke="#0a0d13" stroke-width="2"/>

  <!-- X axis -->
  <text x="48" y="200" class="mono sub-tan" font-size="10" letter-spacing="1">DEC</text>
  <text x="232" y="200" class="mono sub-tan" font-size="10" letter-spacing="1">JAN</text>
  <text x="416" y="200" class="mono sub-tan" font-size="10" letter-spacing="1">MAR</text>
  <text x="600" y="200" class="mono sub-tan" font-size="10" letter-spacing="1" text-anchor="middle">APR</text>
  <text x="784" y="200" class="mono sub-tan" font-size="10" letter-spacing="1">MAY</text>
  <text x="968" y="200" class="mono sub-tan" font-size="10" letter-spacing="1">JUN</text>
  <text x="1152" y="200" class="mono sub-tan" font-size="10" letter-spacing="1" text-anchor="end">TODAY</text>
</svg>
