<svg xmlns="http://www.w3.org/2000/svg" width="1200" height="220" viewBox="0 0 1200 220" role="img" aria-labelledby="activity-title">
  <title id="activity-title">Contribution activity since Dec 2025</title>
  <style>
    .bg { fill: #fcfaf5; stroke: #eae6da; stroke-width: 1; }
    .ink { fill: #141414; }
    .muted { fill: #555555; }
    .sub-tan { fill: #80735a; }
    .dot { fill: #c94a2a; }
    .serif { font-family: "Charter", "Iowan Old Style", "Times New Roman", Georgia, serif; }
    .mono { font-family: ui-monospace, "SF Mono", Consolas, "Liberation Mono", monospace; }
    .rule { stroke: #141414; stroke-width: 1; }
    .grid { stroke: #141414; stroke-opacity: 0.06; stroke-dasharray: 2 4; }
    .line { fill: none; stroke: #141414; stroke-width: 1.4; }
  </style>

  <rect class="bg" x="0.5" y="0.5" width="1199" height="219" rx="6"/>

  <!-- Header -->
  <text x="48" y="44" class="serif ink" font-size="18" font-weight="500">Figure I. <tspan font-style="italic">Contribution activity, since Dec 2025.</tspan></text>
  <text x="1152" y="44" class="mono muted" font-size="11" letter-spacing="2" text-anchor="end">WEEKLY TOTALS  ·  N = 35</text>
  <line class="rule" x1="48" y1="58" x2="1152" y2="58"/>

  <!-- Grid -->
  <line class="grid" x1="48" y1="90" x2="1152" y2="90"/>
  <line class="grid" x1="48" y1="130" x2="1152" y2="130"/>
  <line class="grid" x1="48" y1="170" x2="1152" y2="170"/>

  <!-- Area fill -->
  <defs>
    <linearGradient id="inkFill" x1="0" y1="0" x2="0" y2="1">
      <stop offset="0%" stop-color="#141414" stop-opacity="0.18"/>
      <stop offset="100%" stop-color="#141414" stop-opacity="0"/>
    </linearGradient>
  </defs>
  <path d="M48.0,133.6 L80.5,95.0 L112.9,161.0 L145.4,143.7 L177.9,171.7 L210.4,167.8 L242.8,176.4 L275.3,161.3 L307.8,117.0 L340.2,120.8 L372.7,124.7 L405.2,130.1 L437.6,70.0 L470.1,79.5 L502.6,86.1 L535.1,107.2 L567.5,117.6 L600.0,156.2 L632.5,155.9 L664.9,142.5 L697.4,94.1 L729.9,161.9 L762.4,162.8 L794.8,158.0 L827.3,152.4 L859.8,165.1 L892.2,139.6 L924.7,148.2 L957.2,141.6 L989.6,154.7 L1022.1,155.9 L1054.6,155.3 L1087.1,168.1 L1119.5,162.8 L1152.0,155.3 L1152.0,180 L48.0,180 Z" fill="url(#inkFill)"/>
  <path class="line" d="M48.0,133.6 L80.5,95.0 L112.9,161.0 L145.4,143.7 L177.9,171.7 L210.4,167.8 L242.8,176.4 L275.3,161.3 L307.8,117.0 L340.2,120.8 L372.7,124.7 L405.2,130.1 L437.6,70.0 L470.1,79.5 L502.6,86.1 L535.1,107.2 L567.5,117.6 L600.0,156.2 L632.5,155.9 L664.9,142.5 L697.4,94.1 L729.9,161.9 L762.4,162.8 L794.8,158.0 L827.3,152.4 L859.8,165.1 L892.2,139.6 L924.7,148.2 L957.2,141.6 L989.6,154.7 L1022.1,155.9 L1054.6,155.3 L1087.1,168.1 L1119.5,162.8 L1152.0,155.3"/>

  <circle class="dot" cx="437.6" cy="70.0" r="2.5"/>
  <circle class="dot" cx="470.1" cy="79.5" r="2.5"/>
  <circle class="dot" cx="1152.0" cy="155.3" r="3.5" stroke="#fcfaf5" stroke-width="2"/>

  <!-- X axis -->
  <text x="48" y="200" class="mono sub-tan" font-size="10" letter-spacing="1">DEC</text>
  <text x="232" y="200" class="mono sub-tan" font-size="10" letter-spacing="1">FEB</text>
  <text x="416" y="200" class="mono sub-tan" font-size="10" letter-spacing="1">MAR</text>
  <text x="600" y="200" class="mono sub-tan" font-size="10" letter-spacing="1" text-anchor="middle">MAY</text>
  <text x="784" y="200" class="mono sub-tan" font-size="10" letter-spacing="1">JUN</text>
  <text x="968" y="200" class="mono sub-tan" font-size="10" letter-spacing="1">JUL</text>
  <text x="1152" y="200" class="mono sub-tan" font-size="10" letter-spacing="1" text-anchor="end">TODAY</text>
</svg>
