<svg xmlns="http://www.w3.org/2000/svg" width="1200" height="220" viewBox="0 0 1200 220" role="img" aria-labelledby="activity-title">
  <title id="activity-title">Contribution activity, trailing 12 months</title>
  <style>
    .bg { fill: #f4efe6; stroke: #d8d1c2; stroke-width: 1; }
    .ink { fill: #141414; }
    .muted { fill: #555555; }
    .sub-tan { fill: #7a6a4a; }
    .dot { fill: #c94a2a; }
    .serif { font-family: "Charter", "Iowan Old Style", "Times New Roman", Georgia, serif; }
    .mono { font-family: ui-monospace, "SF Mono", Consolas, "Liberation Mono", monospace; }
    .rule { stroke: #141414; stroke-width: 1; }
    .grid { stroke: #141414; stroke-opacity: 0.06; stroke-dasharray: 2 4; }
    .line { fill: none; stroke: #141414; stroke-width: 1.4; }
  </style>

  <rect class="bg" x="0.5" y="0.5" width="1199" height="219" rx="6"/>

  <!-- Header -->
  <text x="48" y="44" class="serif ink" font-size="18" font-weight="500">Figure I. <tspan font-style="italic">Contribution activity, trailing 12 months.</tspan></text>
  <text x="1152" y="44" class="mono muted" font-size="11" letter-spacing="2" text-anchor="end">WEEKLY TOTALS  ·  N = 53</text>
  <line class="rule" x1="48" y1="58" x2="1152" y2="58"/>

  <!-- Grid -->
  <line class="grid" x1="48" y1="90" x2="1152" y2="90"/>
  <line class="grid" x1="48" y1="130" x2="1152" y2="130"/>
  <line class="grid" x1="48" y1="170" x2="1152" y2="170"/>

  <!-- Area fill -->
  <defs>
    <linearGradient id="inkFill" x1="0" y1="0" x2="0" y2="1">
      <stop offset="0%" stop-color="#141414" stop-opacity="0.18"/>
      <stop offset="100%" stop-color="#141414" stop-opacity="0"/>
    </linearGradient>
  </defs>
  <path d="M48.0,180.0 L69.2,180.0 L90.5,180.0 L111.7,180.0 L132.9,180.0 L154.2,180.0 L175.4,180.0 L196.6,180.0 L217.8,180.0 L239.1,180.0 L260.3,180.0 L281.5,180.0 L302.8,180.0 L324.0,180.0 L345.2,180.0 L366.5,180.0 L387.7,180.0 L408.9,180.0 L430.2,180.0 L451.4,180.0 L472.6,180.0 L493.8,180.0 L515.1,180.0 L536.3,180.0 L557.5,180.0 L578.8,180.0 L600.0,180.0 L621.2,180.0 L642.5,180.0 L663.7,180.0 L684.9,180.0 L706.2,180.0 L727.4,180.0 L748.6,180.0 L769.8,180.0 L791.1,180.0 L812.3,146.8 L833.5,154.5 L854.8,93.9 L876.0,140.8 L897.2,154.8 L918.5,171.7 L939.7,173.3 L960.9,172.7 L982.2,151.9 L1003.4,92.3 L1024.6,122.9 L1045.8,137.9 L1067.1,87.2 L1088.3,70.0 L1109.5,101.2 L1130.8,79.9 L1152.0,169.2 L1152.0,180 L48.0,180 Z" fill="url(#inkFill)"/>
  <path class="line" d="M48.0,180.0 L69.2,180.0 L90.5,180.0 L111.7,180.0 L132.9,180.0 L154.2,180.0 L175.4,180.0 L196.6,180.0 L217.8,180.0 L239.1,180.0 L260.3,180.0 L281.5,180.0 L302.8,180.0 L324.0,180.0 L345.2,180.0 L366.5,180.0 L387.7,180.0 L408.9,180.0 L430.2,180.0 L451.4,180.0 L472.6,180.0 L493.8,180.0 L515.1,180.0 L536.3,180.0 L557.5,180.0 L578.8,180.0 L600.0,180.0 L621.2,180.0 L642.5,180.0 L663.7,180.0 L684.9,180.0 L706.2,180.0 L727.4,180.0 L748.6,180.0 L769.8,180.0 L791.1,180.0 L812.3,146.8 L833.5,154.5 L854.8,93.9 L876.0,140.8 L897.2,154.8 L918.5,171.7 L939.7,173.3 L960.9,172.7 L982.2,151.9 L1003.4,92.3 L1024.6,122.9 L1045.8,137.9 L1067.1,87.2 L1088.3,70.0 L1109.5,101.2 L1130.8,79.9 L1152.0,169.2"/>

  <circle class="dot" cx="1088.3" cy="70.0" r="2.5"/>
  <circle class="dot" cx="1130.8" cy="79.9" r="2.5"/>
  <circle class="dot" cx="1152.0" cy="169.2" r="3.5" stroke="#f4efe6" stroke-width="2"/>

  <!-- X axis -->
  <text x="48" y="200" class="mono sub-tan" font-size="10" letter-spacing="1">MAY</text>
  <text x="232" y="200" class="mono sub-tan" font-size="10" letter-spacing="1">JUL</text>
  <text x="416" y="200" class="mono sub-tan" font-size="10" letter-spacing="1">SEP</text>
  <text x="600" y="200" class="mono sub-tan" font-size="10" letter-spacing="1" text-anchor="middle">NOV</text>
  <text x="784" y="200" class="mono sub-tan" font-size="10" letter-spacing="1">JAN</text>
  <text x="968" y="200" class="mono sub-tan" font-size="10" letter-spacing="1">MAR</text>
  <text x="1152" y="200" class="mono sub-tan" font-size="10" letter-spacing="1" text-anchor="end">TODAY</text>
</svg>
