<svg xmlns="http://www.w3.org/2000/svg" width="1200" height="220" viewBox="0 0 1200 220" role="img" aria-labelledby="activity-title">
  <title id="activity-title">Contribution activity since Dec 2025</title>
  <style>
    .bg { fill: #0a0d13; stroke: #1d2129; stroke-width: 1; }
    .ink { fill: #dfe4eb; }
    .muted { fill: #8b9099; }
    .sub-tan { fill: #6d7480; }
    .dot { fill: #e87252; }
    .serif { font-family: "Charter", "Iowan Old Style", "Times New Roman", Georgia, serif; }
    .mono { font-family: ui-monospace, "SF Mono", Consolas, "Liberation Mono", monospace; }
    .rule { stroke: #dfe4eb; stroke-width: 1; }
    .grid { stroke: #dfe4eb; stroke-opacity: 0.12; stroke-dasharray: 2 4; }
    .line { fill: none; stroke: #dfe4eb; stroke-width: 1.4; }
  </style>

  <rect class="bg" x="0.5" y="0.5" width="1199" height="219" rx="6"/>

  <!-- Header -->
  <text x="48" y="44" class="serif ink" font-size="18" font-weight="500">Figure I. <tspan font-style="italic">Contribution activity, since Dec 2025.</tspan></text>
  <text x="1152" y="44" class="mono muted" font-size="11" letter-spacing="2" text-anchor="end">WEEKLY TOTALS  ·  N = 40</text>
  <line class="rule" x1="48" y1="58" x2="1152" y2="58"/>

  <!-- Grid -->
  <line class="grid" x1="48" y1="90" x2="1152" y2="90"/>
  <line class="grid" x1="48" y1="130" x2="1152" y2="130"/>
  <line class="grid" x1="48" y1="170" x2="1152" y2="170"/>

  <!-- Area fill -->
  <defs>
    <linearGradient id="inkFill" x1="0" y1="0" x2="0" y2="1">
      <stop offset="0%" stop-color="#dfe4eb" stop-opacity="0.20"/>
      <stop offset="100%" stop-color="#dfe4eb" stop-opacity="0"/>
    </linearGradient>
  </defs>
  <path d="M48.0,171.7 L76.3,145.6 L104.6,110.4 L132.9,148.1 L161.2,166.4 L189.5,171.7 L217.8,169.5 L246.2,174.7 L274.5,159.9 L302.8,122.0 L331.1,124.7 L359.4,142.6 L387.7,109.7 L416.0,96.6 L444.3,120.2 L472.6,70.0 L500.9,142.6 L529.2,126.8 L557.5,166.9 L585.8,154.4 L614.2,94.9 L642.5,161.9 L670.8,164.9 L699.1,167.2 L727.4,152.6 L755.7,160.4 L784.0,171.0 L812.3,139.8 L840.6,155.4 L868.9,152.1 L897.2,160.9 L925.5,150.9 L953.8,164.7 L982.2,173.5 L1010.5,164.9 L1038.8,148.1 L1067.1,102.6 L1095.4,87.8 L1123.7,130.5 L1152.0,128.0 L1152.0,180 L48.0,180 Z" fill="url(#inkFill)"/>
  <path class="line" d="M48.0,171.7 L76.3,145.6 L104.6,110.4 L132.9,148.1 L161.2,166.4 L189.5,171.7 L217.8,169.5 L246.2,174.7 L274.5,159.9 L302.8,122.0 L331.1,124.7 L359.4,142.6 L387.7,109.7 L416.0,96.6 L444.3,120.2 L472.6,70.0 L500.9,142.6 L529.2,126.8 L557.5,166.9 L585.8,154.4 L614.2,94.9 L642.5,161.9 L670.8,164.9 L699.1,167.2 L727.4,152.6 L755.7,160.4 L784.0,171.0 L812.3,139.8 L840.6,155.4 L868.9,152.1 L897.2,160.9 L925.5,150.9 L953.8,164.7 L982.2,173.5 L1010.5,164.9 L1038.8,148.1 L1067.1,102.6 L1095.4,87.8 L1123.7,130.5 L1152.0,128.0"/>

  <circle class="dot" cx="472.6" cy="70.0" r="2.5"/>
  <circle class="dot" cx="1095.4" cy="87.8" r="2.5"/>
  <circle class="dot" cx="1152.0" cy="128.0" r="3.5" stroke="#0a0d13" stroke-width="2"/>

  <!-- X axis -->
  <text x="48" y="200" class="mono sub-tan" font-size="10" letter-spacing="1">DEC</text>
  <text x="232" y="200" class="mono sub-tan" font-size="10" letter-spacing="1">FEB</text>
  <text x="416" y="200" class="mono sub-tan" font-size="10" letter-spacing="1">MAR</text>
  <text x="600" y="200" class="mono sub-tan" font-size="10" letter-spacing="1" text-anchor="middle">MAY</text>
  <text x="784" y="200" class="mono sub-tan" font-size="10" letter-spacing="1">JUN</text>
  <text x="968" y="200" class="mono sub-tan" font-size="10" letter-spacing="1">AUG</text>
  <text x="1152" y="200" class="mono sub-tan" font-size="10" letter-spacing="1" text-anchor="end">TODAY</text>
</svg>
