<svg xmlns="http://www.w3.org/2000/svg" width="1200" height="220" viewBox="0 0 1200 220" role="img" aria-labelledby="activity-title">
  <title id="activity-title">Contribution activity since Dec 2025</title>
  <style>
    .bg { fill: #0a0d13; stroke: #1d2129; stroke-width: 1; }
    .ink { fill: #dfe4eb; }
    .muted { fill: #8b9099; }
    .sub-tan { fill: #6d7480; }
    .dot { fill: #e87252; }
    .serif { font-family: "Charter", "Iowan Old Style", "Times New Roman", Georgia, serif; }
    .mono { font-family: ui-monospace, "SF Mono", Consolas, "Liberation Mono", monospace; }
    .rule { stroke: #dfe4eb; stroke-width: 1; }
    .grid { stroke: #dfe4eb; stroke-opacity: 0.12; stroke-dasharray: 2 4; }
    .line { fill: none; stroke: #dfe4eb; stroke-width: 1.4; }
  </style>

  <rect class="bg" x="0.5" y="0.5" width="1199" height="219" rx="6"/>

  <!-- Header -->
  <text x="48" y="44" class="serif ink" font-size="18" font-weight="500">Figure I. <tspan font-style="italic">Contribution activity, since Dec 2025.</tspan></text>
  <text x="1152" y="44" class="mono muted" font-size="11" letter-spacing="2" text-anchor="end">WEEKLY TOTALS  ·  N = 24</text>
  <line class="rule" x1="48" y1="58" x2="1152" y2="58"/>

  <!-- Grid -->
  <line class="grid" x1="48" y1="90" x2="1152" y2="90"/>
  <line class="grid" x1="48" y1="130" x2="1152" y2="130"/>
  <line class="grid" x1="48" y1="170" x2="1152" y2="170"/>

  <!-- Area fill -->
  <defs>
    <linearGradient id="inkFill" x1="0" y1="0" x2="0" y2="1">
      <stop offset="0%" stop-color="#dfe4eb" stop-opacity="0.20"/>
      <stop offset="100%" stop-color="#dfe4eb" stop-opacity="0"/>
    </linearGradient>
  </defs>
  <path d="M48.0,139.5 L96.0,105.8 L144.0,162.6 L192.0,149.1 L240.0,172.7 L288.0,167.8 L336.0,174.8 L384.0,163.7 L432.0,122.7 L480.0,127.6 L528.0,135.4 L576.0,124.0 L624.0,80.1 L672.0,110.5 L720.0,70.0 L768.0,139.3 L816.0,122.4 L864.0,165.5 L912.0,154.1 L960.0,90.2 L1008.0,165.0 L1056.0,163.1 L1104.0,165.5 L1152.0,154.1 L1152.0,180 L48.0,180 Z" fill="url(#inkFill)"/>
  <path class="line" d="M48.0,139.5 L96.0,105.8 L144.0,162.6 L192.0,149.1 L240.0,172.7 L288.0,167.8 L336.0,174.8 L384.0,163.7 L432.0,122.7 L480.0,127.6 L528.0,135.4 L576.0,124.0 L624.0,80.1 L672.0,110.5 L720.0,70.0 L768.0,139.3 L816.0,122.4 L864.0,165.5 L912.0,154.1 L960.0,90.2 L1008.0,165.0 L1056.0,163.1 L1104.0,165.5 L1152.0,154.1"/>

  <circle class="dot" cx="720.0" cy="70.0" r="2.5"/>
  <circle class="dot" cx="624.0" cy="80.1" r="2.5"/>
  <circle class="dot" cx="1152.0" cy="154.1" r="3.5" stroke="#0a0d13" stroke-width="2"/>

  <!-- X axis -->
  <text x="48" y="200" class="mono sub-tan" font-size="10" letter-spacing="1">DEC</text>
  <text x="232" y="200" class="mono sub-tan" font-size="10" letter-spacing="1">JAN</text>
  <text x="416" y="200" class="mono sub-tan" font-size="10" letter-spacing="1">FEB</text>
  <text x="600" y="200" class="mono sub-tan" font-size="10" letter-spacing="1" text-anchor="middle">MAR</text>
  <text x="784" y="200" class="mono sub-tan" font-size="10" letter-spacing="1">APR</text>
  <text x="968" y="200" class="mono sub-tan" font-size="10" letter-spacing="1">MAY</text>
  <text x="1152" y="200" class="mono sub-tan" font-size="10" letter-spacing="1" text-anchor="end">TODAY</text>
</svg>
