<svg xmlns="http://www.w3.org/2000/svg" width="1200" height="220" viewBox="0 0 1200 220" role="img" aria-labelledby="activity-title">
  <title id="activity-title">Contribution activity since Dec 2025</title>
  <style>
    .bg { fill: #fcfaf5; stroke: #eae6da; stroke-width: 1; }
    .ink { fill: #141414; }
    .muted { fill: #555555; }
    .sub-tan { fill: #80735a; }
    .dot { fill: #c94a2a; }
    .serif { font-family: "Charter", "Iowan Old Style", "Times New Roman", Georgia, serif; }
    .mono { font-family: ui-monospace, "SF Mono", Consolas, "Liberation Mono", monospace; }
    .rule { stroke: #141414; stroke-width: 1; }
    .grid { stroke: #141414; stroke-opacity: 0.06; stroke-dasharray: 2 4; }
    .line { fill: none; stroke: #141414; stroke-width: 1.4; }
  </style>

  <rect class="bg" x="0.5" y="0.5" width="1199" height="219" rx="6"/>

  <!-- Header -->
  <text x="48" y="44" class="serif ink" font-size="18" font-weight="500">Figure I. <tspan font-style="italic">Contribution activity, since Dec 2025.</tspan></text>
  <text x="1152" y="44" class="mono muted" font-size="11" letter-spacing="2" text-anchor="end">WEEKLY TOTALS  ·  N = 33</text>
  <line class="rule" x1="48" y1="58" x2="1152" y2="58"/>

  <!-- Grid -->
  <line class="grid" x1="48" y1="90" x2="1152" y2="90"/>
  <line class="grid" x1="48" y1="130" x2="1152" y2="130"/>
  <line class="grid" x1="48" y1="170" x2="1152" y2="170"/>

  <!-- Area fill -->
  <defs>
    <linearGradient id="inkFill" x1="0" y1="0" x2="0" y2="1">
      <stop offset="0%" stop-color="#141414" stop-opacity="0.18"/>
      <stop offset="100%" stop-color="#141414" stop-opacity="0"/>
    </linearGradient>
  </defs>
  <path d="M48.0,141.8 L82.5,162.4 L117.0,93.9 L151.5,135.8 L186.0,167.3 L220.5,172.1 L255.0,173.3 L289.5,170.9 L324.0,146.4 L358.5,101.2 L393.0,117.0 L427.5,133.3 L462.0,70.0 L496.5,86.7 L531.0,108.5 L565.5,75.2 L600.0,134.5 L634.5,116.4 L669.0,164.8 L703.5,149.7 L738.0,80.6 L772.5,159.4 L807.0,159.7 L841.5,168.5 L876.0,143.3 L910.5,160.6 L945.0,157.0 L979.5,134.5 L1014.0,142.4 L1048.5,153.0 L1083.0,153.6 L1117.5,156.4 L1152.0,160.9 L1152.0,180 L48.0,180 Z" fill="url(#inkFill)"/>
  <path class="line" d="M48.0,141.8 L82.5,162.4 L117.0,93.9 L151.5,135.8 L186.0,167.3 L220.5,172.1 L255.0,173.3 L289.5,170.9 L324.0,146.4 L358.5,101.2 L393.0,117.0 L427.5,133.3 L462.0,70.0 L496.5,86.7 L531.0,108.5 L565.5,75.2 L600.0,134.5 L634.5,116.4 L669.0,164.8 L703.5,149.7 L738.0,80.6 L772.5,159.4 L807.0,159.7 L841.5,168.5 L876.0,143.3 L910.5,160.6 L945.0,157.0 L979.5,134.5 L1014.0,142.4 L1048.5,153.0 L1083.0,153.6 L1117.5,156.4 L1152.0,160.9"/>

  <circle class="dot" cx="462.0" cy="70.0" r="2.5"/>
  <circle class="dot" cx="565.5" cy="75.2" r="2.5"/>
  <circle class="dot" cx="1152.0" cy="160.9" r="3.5" stroke="#fcfaf5" stroke-width="2"/>

  <!-- X axis -->
  <text x="48" y="200" class="mono sub-tan" font-size="10" letter-spacing="1">DEC</text>
  <text x="232" y="200" class="mono sub-tan" font-size="10" letter-spacing="1">FEB</text>
  <text x="416" y="200" class="mono sub-tan" font-size="10" letter-spacing="1">MAR</text>
  <text x="600" y="200" class="mono sub-tan" font-size="10" letter-spacing="1" text-anchor="middle">APR</text>
  <text x="784" y="200" class="mono sub-tan" font-size="10" letter-spacing="1">MAY</text>
  <text x="968" y="200" class="mono sub-tan" font-size="10" letter-spacing="1">JUL</text>
  <text x="1152" y="200" class="mono sub-tan" font-size="10" letter-spacing="1" text-anchor="end">TODAY</text>
</svg>
