<svg xmlns="http://www.w3.org/2000/svg" width="1200" height="220" viewBox="0 0 1200 220" role="img" aria-labelledby="activity-title">
  <title id="activity-title">Contribution activity since Dec 2025</title>
  <style>
    .bg { fill: #fcfaf5; stroke: #eae6da; stroke-width: 1; }
    .ink { fill: #141414; }
    .muted { fill: #555555; }
    .sub-tan { fill: #80735a; }
    .dot { fill: #c94a2a; }
    .serif { font-family: "Charter", "Iowan Old Style", "Times New Roman", Georgia, serif; }
    .mono { font-family: ui-monospace, "SF Mono", Consolas, "Liberation Mono", monospace; }
    .rule { stroke: #141414; stroke-width: 1; }
    .grid { stroke: #141414; stroke-opacity: 0.06; stroke-dasharray: 2 4; }
    .line { fill: none; stroke: #141414; stroke-width: 1.4; }
  </style>

  <rect class="bg" x="0.5" y="0.5" width="1199" height="219" rx="6"/>

  <!-- Header -->
  <text x="48" y="44" class="serif ink" font-size="18" font-weight="500">Figure I. <tspan font-style="italic">Contribution activity, since Dec 2025.</tspan></text>
  <text x="1152" y="44" class="mono muted" font-size="11" letter-spacing="2" text-anchor="end">WEEKLY TOTALS  ·  N = 37</text>
  <line class="rule" x1="48" y1="58" x2="1152" y2="58"/>

  <!-- Grid -->
  <line class="grid" x1="48" y1="90" x2="1152" y2="90"/>
  <line class="grid" x1="48" y1="130" x2="1152" y2="130"/>
  <line class="grid" x1="48" y1="170" x2="1152" y2="170"/>

  <!-- Area fill -->
  <defs>
    <linearGradient id="inkFill" x1="0" y1="0" x2="0" y2="1">
      <stop offset="0%" stop-color="#141414" stop-opacity="0.18"/>
      <stop offset="100%" stop-color="#141414" stop-opacity="0"/>
    </linearGradient>
  </defs>
  <path d="M48.0,132.7 L78.7,93.3 L109.3,160.6 L140.0,146.1 L170.7,168.5 L201.3,168.8 L232.0,175.2 L262.7,167.9 L293.3,129.1 L324.0,106.1 L354.7,127.3 L385.3,124.2 L416.0,75.5 L446.7,70.0 L477.3,103.0 L508.0,81.8 L538.7,132.1 L569.3,140.6 L600.0,161.8 L630.7,136.7 L661.3,93.9 L692.0,159.1 L722.7,161.2 L753.3,163.0 L784.0,148.2 L814.7,162.4 L845.3,143.0 L876.0,145.2 L906.7,141.2 L937.3,153.6 L968.0,160.0 L998.7,150.6 L1029.3,167.0 L1060.0,165.5 L1090.7,156.4 L1121.3,95.5 L1152.0,84.2 L1152.0,180 L48.0,180 Z" fill="url(#inkFill)"/>
  <path class="line" d="M48.0,132.7 L78.7,93.3 L109.3,160.6 L140.0,146.1 L170.7,168.5 L201.3,168.8 L232.0,175.2 L262.7,167.9 L293.3,129.1 L324.0,106.1 L354.7,127.3 L385.3,124.2 L416.0,75.5 L446.7,70.0 L477.3,103.0 L508.0,81.8 L538.7,132.1 L569.3,140.6 L600.0,161.8 L630.7,136.7 L661.3,93.9 L692.0,159.1 L722.7,161.2 L753.3,163.0 L784.0,148.2 L814.7,162.4 L845.3,143.0 L876.0,145.2 L906.7,141.2 L937.3,153.6 L968.0,160.0 L998.7,150.6 L1029.3,167.0 L1060.0,165.5 L1090.7,156.4 L1121.3,95.5 L1152.0,84.2"/>

  <circle class="dot" cx="446.7" cy="70.0" r="2.5"/>
  <circle class="dot" cx="416.0" cy="75.5" r="2.5"/>
  <circle class="dot" cx="1152.0" cy="84.2" r="3.5" stroke="#fcfaf5" stroke-width="2"/>

  <!-- X axis -->
  <text x="48" y="200" class="mono sub-tan" font-size="10" letter-spacing="1">DEC</text>
  <text x="232" y="200" class="mono sub-tan" font-size="10" letter-spacing="1">FEB</text>
  <text x="416" y="200" class="mono sub-tan" font-size="10" letter-spacing="1">MAR</text>
  <text x="600" y="200" class="mono sub-tan" font-size="10" letter-spacing="1" text-anchor="middle">MAY</text>
  <text x="784" y="200" class="mono sub-tan" font-size="10" letter-spacing="1">JUN</text>
  <text x="968" y="200" class="mono sub-tan" font-size="10" letter-spacing="1">JUL</text>
  <text x="1152" y="200" class="mono sub-tan" font-size="10" letter-spacing="1" text-anchor="end">TODAY</text>
</svg>
