<svg xmlns="http://www.w3.org/2000/svg" width="1200" height="220" viewBox="0 0 1200 220" role="img" aria-labelledby="activity-title">
  <title id="activity-title">Contribution activity since Dec 2025</title>
  <style>
    .bg { fill: #fcfaf5; stroke: #eae6da; stroke-width: 1; }
    .ink { fill: #141414; }
    .muted { fill: #555555; }
    .sub-tan { fill: #80735a; }
    .dot { fill: #c94a2a; }
    .serif { font-family: "Charter", "Iowan Old Style", "Times New Roman", Georgia, serif; }
    .mono { font-family: ui-monospace, "SF Mono", Consolas, "Liberation Mono", monospace; }
    .rule { stroke: #141414; stroke-width: 1; }
    .grid { stroke: #141414; stroke-opacity: 0.06; stroke-dasharray: 2 4; }
    .line { fill: none; stroke: #141414; stroke-width: 1.4; }
  </style>

  <rect class="bg" x="0.5" y="0.5" width="1199" height="219" rx="6"/>

  <!-- Header -->
  <text x="48" y="44" class="serif ink" font-size="18" font-weight="500">Figure I. <tspan font-style="italic">Contribution activity, since Dec 2025.</tspan></text>
  <text x="1152" y="44" class="mono muted" font-size="11" letter-spacing="2" text-anchor="end">WEEKLY TOTALS  ·  N = 20</text>
  <line class="rule" x1="48" y1="58" x2="1152" y2="58"/>

  <!-- Grid -->
  <line class="grid" x1="48" y1="90" x2="1152" y2="90"/>
  <line class="grid" x1="48" y1="130" x2="1152" y2="130"/>
  <line class="grid" x1="48" y1="170" x2="1152" y2="170"/>

  <!-- Area fill -->
  <defs>
    <linearGradient id="inkFill" x1="0" y1="0" x2="0" y2="1">
      <stop offset="0%" stop-color="#141414" stop-opacity="0.18"/>
      <stop offset="100%" stop-color="#141414" stop-opacity="0"/>
    </linearGradient>
  </defs>
  <path d="M48.0,171.7 L106.1,145.6 L164.2,110.4 L222.3,148.1 L280.4,166.4 L338.5,171.7 L396.6,169.5 L454.7,174.7 L512.8,159.9 L570.9,122.0 L629.1,124.7 L687.2,142.6 L745.3,109.7 L803.4,96.6 L861.5,120.2 L919.6,70.0 L977.7,142.1 L1035.8,92.6 L1093.9,164.9 L1152.0,176.2 L1152.0,180 L48.0,180 Z" fill="url(#inkFill)"/>
  <path class="line" d="M48.0,171.7 L106.1,145.6 L164.2,110.4 L222.3,148.1 L280.4,166.4 L338.5,171.7 L396.6,169.5 L454.7,174.7 L512.8,159.9 L570.9,122.0 L629.1,124.7 L687.2,142.6 L745.3,109.7 L803.4,96.6 L861.5,120.2 L919.6,70.0 L977.7,142.1 L1035.8,92.6 L1093.9,164.9 L1152.0,176.2"/>

  <circle class="dot" cx="919.6" cy="70.0" r="2.5"/>
  <circle class="dot" cx="1035.8" cy="92.6" r="2.5"/>
  <circle class="dot" cx="1152.0" cy="176.2" r="3.5" stroke="#fcfaf5" stroke-width="2"/>

  <!-- X axis -->
  <text x="48" y="200" class="mono sub-tan" font-size="10" letter-spacing="1">DEC</text>
  <text x="232" y="200" class="mono sub-tan" font-size="10" letter-spacing="1">JAN</text>
  <text x="416" y="200" class="mono sub-tan" font-size="10" letter-spacing="1">FEB</text>
  <text x="600" y="200" class="mono sub-tan" font-size="10" letter-spacing="1" text-anchor="middle">MAR</text>
  <text x="784" y="200" class="mono sub-tan" font-size="10" letter-spacing="1">MAR</text>
  <text x="968" y="200" class="mono sub-tan" font-size="10" letter-spacing="1">APR</text>
  <text x="1152" y="200" class="mono sub-tan" font-size="10" letter-spacing="1" text-anchor="end">TODAY</text>
</svg>
