<svg xmlns="http://www.w3.org/2000/svg" width="1200" height="220" viewBox="0 0 1200 220" role="img" aria-labelledby="activity-title">
  <title id="activity-title">Contribution activity, trailing 12 months</title>
  <style>
    .bg { fill: #f4efe6; stroke: #d8d1c2; stroke-width: 1; }
    .ink { fill: #141414; }
    .muted { fill: #555555; }
    .sub-tan { fill: #7a6a4a; }
    .dot { fill: #c94a2a; }
    .serif { font-family: "Charter", "Iowan Old Style", "Times New Roman", Georgia, serif; }
    .mono { font-family: ui-monospace, "SF Mono", Consolas, "Liberation Mono", monospace; }
    .rule { stroke: #141414; stroke-width: 1; }
    .grid { stroke: #141414; stroke-opacity: 0.06; stroke-dasharray: 2 4; }
    .line { fill: none; stroke: #141414; stroke-width: 1.4; }
  </style>

  <rect class="bg" x="0.5" y="0.5" width="1199" height="219" rx="6"/>

  <!-- Header -->
  <text x="48" y="44" class="serif ink" font-size="18" font-weight="500">Figure I. <tspan font-style="italic">Contribution activity, trailing 12 months.</tspan></text>
  <text x="1152" y="44" class="mono muted" font-size="11" letter-spacing="2" text-anchor="end">WEEKLY TOTALS  ·  N = 52</text>
  <line class="rule" x1="48" y1="58" x2="1152" y2="58"/>

  <!-- Grid -->
  <line class="grid" x1="48" y1="90" x2="1152" y2="90"/>
  <line class="grid" x1="48" y1="130" x2="1152" y2="130"/>
  <line class="grid" x1="48" y1="170" x2="1152" y2="170"/>

  <!-- Area fill -->
  <defs>
    <linearGradient id="inkFill" x1="0" y1="0" x2="0" y2="1">
      <stop offset="0%" stop-color="#141414" stop-opacity="0.18"/>
      <stop offset="100%" stop-color="#141414" stop-opacity="0"/>
    </linearGradient>
  </defs>
  <path d="M48.0,152.5 L69.6,83.8 L91.3,163.8 L112.9,133.8 L134.6,155.0 L156.2,95.0 L177.9,102.5 L199.5,98.8 L221.2,70.0 L242.8,113.8 L264.5,141.2 L286.1,158.8 L307.8,96.2 L329.4,170.0 L351.1,112.5 L372.7,105.0 L394.4,77.5 L416.0,173.8 L437.6,102.5 L459.3,131.2 L480.9,137.5 L502.6,80.0 L524.2,157.5 L545.9,123.8 L567.5,170.0 L589.2,171.2 L610.8,170.0 L632.5,70.0 L654.1,87.5 L675.8,172.5 L697.4,113.8 L719.1,140.0 L740.7,106.2 L762.4,170.0 L784.0,90.0 L805.6,138.8 L827.3,103.8 L848.9,95.0 L870.6,86.2 L892.2,137.5 L913.9,118.8 L935.5,137.5 L957.2,138.8 L978.8,101.2 L1000.5,127.5 L1022.1,171.2 L1043.8,107.5 L1065.4,85.0 L1087.1,71.2 L1108.7,158.8 L1130.4,145.0 L1152.0,73.8 L1152.0,180 L48.0,180 Z" fill="url(#inkFill)"/>
  <path class="line" d="M48.0,152.5 L69.6,83.8 L91.3,163.8 L112.9,133.8 L134.6,155.0 L156.2,95.0 L177.9,102.5 L199.5,98.8 L221.2,70.0 L242.8,113.8 L264.5,141.2 L286.1,158.8 L307.8,96.2 L329.4,170.0 L351.1,112.5 L372.7,105.0 L394.4,77.5 L416.0,173.8 L437.6,102.5 L459.3,131.2 L480.9,137.5 L502.6,80.0 L524.2,157.5 L545.9,123.8 L567.5,170.0 L589.2,171.2 L610.8,170.0 L632.5,70.0 L654.1,87.5 L675.8,172.5 L697.4,113.8 L719.1,140.0 L740.7,106.2 L762.4,170.0 L784.0,90.0 L805.6,138.8 L827.3,103.8 L848.9,95.0 L870.6,86.2 L892.2,137.5 L913.9,118.8 L935.5,137.5 L957.2,138.8 L978.8,101.2 L1000.5,127.5 L1022.1,171.2 L1043.8,107.5 L1065.4,85.0 L1087.1,71.2 L1108.7,158.8 L1130.4,145.0 L1152.0,73.8"/>

  <circle class="dot" cx="221.2" cy="70.0" r="2.5"/>
  <circle class="dot" cx="632.5" cy="70.0" r="2.5"/>
  <circle class="dot" cx="1152.0" cy="73.8" r="3.5" stroke="#f4efe6" stroke-width="2"/>

  <!-- X axis -->
  <text x="48" y="200" class="mono sub-tan" font-size="10" letter-spacing="1">MAY</text>
  <text x="232" y="200" class="mono sub-tan" font-size="10" letter-spacing="1">JUL</text>
  <text x="416" y="200" class="mono sub-tan" font-size="10" letter-spacing="1">SEP</text>
  <text x="600" y="200" class="mono sub-tan" font-size="10" letter-spacing="1" text-anchor="middle">NOV</text>
  <text x="784" y="200" class="mono sub-tan" font-size="10" letter-spacing="1">JAN</text>
  <text x="968" y="200" class="mono sub-tan" font-size="10" letter-spacing="1">MAR</text>
  <text x="1152" y="200" class="mono sub-tan" font-size="10" letter-spacing="1" text-anchor="end">TODAY</text>
</svg>
