<svg xmlns="http://www.w3.org/2000/svg" width="1200" height="220" viewBox="0 0 1200 220" role="img" aria-labelledby="activity-title">
  <title id="activity-title">Contribution activity since Dec 2025</title>
  <style>
    .bg { fill: #0a0d13; stroke: #1d2129; stroke-width: 1; }
    .ink { fill: #dfe4eb; }
    .muted { fill: #8b9099; }
    .sub-tan { fill: #6d7480; }
    .dot { fill: #e87252; }
    .serif { font-family: "Charter", "Iowan Old Style", "Times New Roman", Georgia, serif; }
    .mono { font-family: ui-monospace, "SF Mono", Consolas, "Liberation Mono", monospace; }
    .rule { stroke: #dfe4eb; stroke-width: 1; }
    .grid { stroke: #dfe4eb; stroke-opacity: 0.12; stroke-dasharray: 2 4; }
    .line { fill: none; stroke: #dfe4eb; stroke-width: 1.4; }
  </style>

  <rect class="bg" x="0.5" y="0.5" width="1199" height="219" rx="6"/>

  <!-- Header -->
  <text x="48" y="44" class="serif ink" font-size="18" font-weight="500">Figure I. <tspan font-style="italic">Contribution activity, since Dec 2025.</tspan></text>
  <text x="1152" y="44" class="mono muted" font-size="11" letter-spacing="2" text-anchor="end">WEEKLY TOTALS  ·  N = 19</text>
  <line class="rule" x1="48" y1="58" x2="1152" y2="58"/>

  <!-- Grid -->
  <line class="grid" x1="48" y1="90" x2="1152" y2="90"/>
  <line class="grid" x1="48" y1="130" x2="1152" y2="130"/>
  <line class="grid" x1="48" y1="170" x2="1152" y2="170"/>

  <!-- Area fill -->
  <defs>
    <linearGradient id="inkFill" x1="0" y1="0" x2="0" y2="1">
      <stop offset="0%" stop-color="#dfe4eb" stop-opacity="0.20"/>
      <stop offset="100%" stop-color="#dfe4eb" stop-opacity="0"/>
    </linearGradient>
  </defs>
  <path d="M48.0,171.7 L109.3,145.6 L170.7,110.4 L232.0,148.1 L293.3,166.4 L354.7,171.7 L416.0,169.5 L477.3,174.7 L538.7,159.9 L600.0,122.0 L661.3,124.7 L722.7,142.6 L784.0,109.7 L845.3,96.6 L906.7,120.2 L968.0,70.0 L1029.3,142.1 L1090.7,92.6 L1152.0,175.7 L1152.0,180 L48.0,180 Z" fill="url(#inkFill)"/>
  <path class="line" d="M48.0,171.7 L109.3,145.6 L170.7,110.4 L232.0,148.1 L293.3,166.4 L354.7,171.7 L416.0,169.5 L477.3,174.7 L538.7,159.9 L600.0,122.0 L661.3,124.7 L722.7,142.6 L784.0,109.7 L845.3,96.6 L906.7,120.2 L968.0,70.0 L1029.3,142.1 L1090.7,92.6 L1152.0,175.7"/>

  <circle class="dot" cx="968.0" cy="70.0" r="2.5"/>
  <circle class="dot" cx="1090.7" cy="92.6" r="2.5"/>
  <circle class="dot" cx="1152.0" cy="175.7" r="3.5" stroke="#0a0d13" stroke-width="2"/>

  <!-- X axis -->
  <text x="48" y="200" class="mono sub-tan" font-size="10" letter-spacing="1">DEC</text>
  <text x="232" y="200" class="mono sub-tan" font-size="10" letter-spacing="1">JAN</text>
  <text x="416" y="200" class="mono sub-tan" font-size="10" letter-spacing="1">FEB</text>
  <text x="600" y="200" class="mono sub-tan" font-size="10" letter-spacing="1" text-anchor="middle">FEB</text>
  <text x="784" y="200" class="mono sub-tan" font-size="10" letter-spacing="1">MAR</text>
  <text x="968" y="200" class="mono sub-tan" font-size="10" letter-spacing="1">APR</text>
  <text x="1152" y="200" class="mono sub-tan" font-size="10" letter-spacing="1" text-anchor="end">TODAY</text>
</svg>
