<svg xmlns="http://www.w3.org/2000/svg" width="1200" height="220" viewBox="0 0 1200 220" role="img" aria-labelledby="activity-title">
  <title id="activity-title">Contribution activity since Dec 2025</title>
  <style>
    .bg { fill: #0a0d13; stroke: #1d2129; stroke-width: 1; }
    .ink { fill: #dfe4eb; }
    .muted { fill: #8b9099; }
    .sub-tan { fill: #6d7480; }
    .dot { fill: #e87252; }
    .serif { font-family: "Charter", "Iowan Old Style", "Times New Roman", Georgia, serif; }
    .mono { font-family: ui-monospace, "SF Mono", Consolas, "Liberation Mono", monospace; }
    .rule { stroke: #dfe4eb; stroke-width: 1; }
    .grid { stroke: #dfe4eb; stroke-opacity: 0.12; stroke-dasharray: 2 4; }
    .line { fill: none; stroke: #dfe4eb; stroke-width: 1.4; }
  </style>

  <rect class="bg" x="0.5" y="0.5" width="1199" height="219" rx="6"/>

  <!-- Header -->
  <text x="48" y="44" class="serif ink" font-size="18" font-weight="500">Figure I. <tspan font-style="italic">Contribution activity, since Dec 2025.</tspan></text>
  <text x="1152" y="44" class="mono muted" font-size="11" letter-spacing="2" text-anchor="end">WEEKLY TOTALS  ·  N = 27</text>
  <line class="rule" x1="48" y1="58" x2="1152" y2="58"/>

  <!-- Grid -->
  <line class="grid" x1="48" y1="90" x2="1152" y2="90"/>
  <line class="grid" x1="48" y1="130" x2="1152" y2="130"/>
  <line class="grid" x1="48" y1="170" x2="1152" y2="170"/>

  <!-- Area fill -->
  <defs>
    <linearGradient id="inkFill" x1="0" y1="0" x2="0" y2="1">
      <stop offset="0%" stop-color="#dfe4eb" stop-opacity="0.20"/>
      <stop offset="100%" stop-color="#dfe4eb" stop-opacity="0"/>
    </linearGradient>
  </defs>
  <path d="M48.0,133.6 L90.5,95.0 L132.9,161.0 L175.4,143.7 L217.8,171.7 L260.3,167.8 L302.8,176.4 L345.2,161.3 L387.7,117.0 L430.2,120.8 L472.6,124.7 L515.1,130.1 L557.5,70.0 L600.0,79.5 L642.5,86.1 L684.9,107.2 L727.4,117.6 L769.8,153.5 L812.3,155.9 L854.8,142.5 L897.2,91.4 L939.7,161.9 L982.2,162.8 L1024.6,158.0 L1067.1,150.9 L1109.5,165.1 L1152.0,139.6 L1152.0,180 L48.0,180 Z" fill="url(#inkFill)"/>
  <path class="line" d="M48.0,133.6 L90.5,95.0 L132.9,161.0 L175.4,143.7 L217.8,171.7 L260.3,167.8 L302.8,176.4 L345.2,161.3 L387.7,117.0 L430.2,120.8 L472.6,124.7 L515.1,130.1 L557.5,70.0 L600.0,79.5 L642.5,86.1 L684.9,107.2 L727.4,117.6 L769.8,153.5 L812.3,155.9 L854.8,142.5 L897.2,91.4 L939.7,161.9 L982.2,162.8 L1024.6,158.0 L1067.1,150.9 L1109.5,165.1 L1152.0,139.6"/>

  <circle class="dot" cx="557.5" cy="70.0" r="2.5"/>
  <circle class="dot" cx="600.0" cy="79.5" r="2.5"/>
  <circle class="dot" cx="1152.0" cy="139.6" r="3.5" stroke="#0a0d13" stroke-width="2"/>

  <!-- X axis -->
  <text x="48" y="200" class="mono sub-tan" font-size="10" letter-spacing="1">DEC</text>
  <text x="232" y="200" class="mono sub-tan" font-size="10" letter-spacing="1">JAN</text>
  <text x="416" y="200" class="mono sub-tan" font-size="10" letter-spacing="1">MAR</text>
  <text x="600" y="200" class="mono sub-tan" font-size="10" letter-spacing="1" text-anchor="middle">APR</text>
  <text x="784" y="200" class="mono sub-tan" font-size="10" letter-spacing="1">MAY</text>
  <text x="968" y="200" class="mono sub-tan" font-size="10" letter-spacing="1">JUN</text>
  <text x="1152" y="200" class="mono sub-tan" font-size="10" letter-spacing="1" text-anchor="end">TODAY</text>
</svg>
