<svg xmlns="http://www.w3.org/2000/svg" width="1200" height="220" viewBox="0 0 1200 220" role="img" aria-labelledby="activity-title">
  <title id="activity-title">Contribution activity since Dec 2025</title>
  <style>
    .bg { fill: #fcfaf5; stroke: #eae6da; stroke-width: 1; }
    .ink { fill: #141414; }
    .muted { fill: #555555; }
    .sub-tan { fill: #80735a; }
    .dot { fill: #c94a2a; }
    .serif { font-family: "Charter", "Iowan Old Style", "Times New Roman", Georgia, serif; }
    .mono { font-family: ui-monospace, "SF Mono", Consolas, "Liberation Mono", monospace; }
    .rule { stroke: #141414; stroke-width: 1; }
    .grid { stroke: #141414; stroke-opacity: 0.06; stroke-dasharray: 2 4; }
    .line { fill: none; stroke: #141414; stroke-width: 1.4; }
  </style>

  <rect class="bg" x="0.5" y="0.5" width="1199" height="219" rx="6"/>

  <!-- Header -->
  <text x="48" y="44" class="serif ink" font-size="18" font-weight="500">Figure I. <tspan font-style="italic">Contribution activity, since Dec 2025.</tspan></text>
  <text x="1152" y="44" class="mono muted" font-size="11" letter-spacing="2" text-anchor="end">WEEKLY TOTALS  ·  N = 39</text>
  <line class="rule" x1="48" y1="58" x2="1152" y2="58"/>

  <!-- Grid -->
  <line class="grid" x1="48" y1="90" x2="1152" y2="90"/>
  <line class="grid" x1="48" y1="130" x2="1152" y2="130"/>
  <line class="grid" x1="48" y1="170" x2="1152" y2="170"/>

  <!-- Area fill -->
  <defs>
    <linearGradient id="inkFill" x1="0" y1="0" x2="0" y2="1">
      <stop offset="0%" stop-color="#141414" stop-opacity="0.18"/>
      <stop offset="100%" stop-color="#141414" stop-opacity="0"/>
    </linearGradient>
  </defs>
  <path d="M48.0,132.7 L77.1,93.3 L106.1,160.6 L135.2,146.1 L164.2,168.5 L193.3,168.8 L222.3,175.2 L251.4,167.9 L280.4,129.1 L309.5,106.1 L338.5,127.3 L367.6,124.2 L396.6,75.5 L425.7,70.0 L454.7,103.0 L483.8,81.8 L512.8,132.1 L541.9,140.6 L570.9,161.8 L600.0,136.7 L629.1,93.9 L658.1,159.1 L687.2,161.2 L716.2,163.0 L745.3,148.2 L774.3,162.4 L803.4,143.0 L832.4,145.2 L861.5,141.2 L890.5,153.6 L919.6,160.0 L948.6,150.6 L977.7,167.0 L1006.7,165.5 L1035.8,156.4 L1064.8,94.5 L1093.9,79.7 L1122.9,103.0 L1152.0,128.5 L1152.0,180 L48.0,180 Z" fill="url(#inkFill)"/>
  <path class="line" d="M48.0,132.7 L77.1,93.3 L106.1,160.6 L135.2,146.1 L164.2,168.5 L193.3,168.8 L222.3,175.2 L251.4,167.9 L280.4,129.1 L309.5,106.1 L338.5,127.3 L367.6,124.2 L396.6,75.5 L425.7,70.0 L454.7,103.0 L483.8,81.8 L512.8,132.1 L541.9,140.6 L570.9,161.8 L600.0,136.7 L629.1,93.9 L658.1,159.1 L687.2,161.2 L716.2,163.0 L745.3,148.2 L774.3,162.4 L803.4,143.0 L832.4,145.2 L861.5,141.2 L890.5,153.6 L919.6,160.0 L948.6,150.6 L977.7,167.0 L1006.7,165.5 L1035.8,156.4 L1064.8,94.5 L1093.9,79.7 L1122.9,103.0 L1152.0,128.5"/>

  <circle class="dot" cx="425.7" cy="70.0" r="2.5"/>
  <circle class="dot" cx="396.6" cy="75.5" r="2.5"/>
  <circle class="dot" cx="1152.0" cy="128.5" r="3.5" stroke="#fcfaf5" stroke-width="2"/>

  <!-- X axis -->
  <text x="48" y="200" class="mono sub-tan" font-size="10" letter-spacing="1">DEC</text>
  <text x="232" y="200" class="mono sub-tan" font-size="10" letter-spacing="1">FEB</text>
  <text x="416" y="200" class="mono sub-tan" font-size="10" letter-spacing="1">MAR</text>
  <text x="600" y="200" class="mono sub-tan" font-size="10" letter-spacing="1" text-anchor="middle">MAY</text>
  <text x="784" y="200" class="mono sub-tan" font-size="10" letter-spacing="1">JUN</text>
  <text x="968" y="200" class="mono sub-tan" font-size="10" letter-spacing="1">AUG</text>
  <text x="1152" y="200" class="mono sub-tan" font-size="10" letter-spacing="1" text-anchor="end">TODAY</text>
</svg>
