<svg xmlns="http://www.w3.org/2000/svg" width="1200" height="220" viewBox="0 0 1200 220" role="img" aria-labelledby="activity-title">
  <title id="activity-title">Contribution activity since Dec 2025</title>
  <style>
    .bg { fill: #0a0d13; stroke: #1d2129; stroke-width: 1; }
    .ink { fill: #dfe4eb; }
    .muted { fill: #8b9099; }
    .sub-tan { fill: #6d7480; }
    .dot { fill: #e87252; }
    .serif { font-family: "Charter", "Iowan Old Style", "Times New Roman", Georgia, serif; }
    .mono { font-family: ui-monospace, "SF Mono", Consolas, "Liberation Mono", monospace; }
    .rule { stroke: #dfe4eb; stroke-width: 1; }
    .grid { stroke: #dfe4eb; stroke-opacity: 0.12; stroke-dasharray: 2 4; }
    .line { fill: none; stroke: #dfe4eb; stroke-width: 1.4; }
  </style>

  <rect class="bg" x="0.5" y="0.5" width="1199" height="219" rx="6"/>

  <!-- Header -->
  <text x="48" y="44" class="serif ink" font-size="18" font-weight="500">Figure I. <tspan font-style="italic">Contribution activity, since Dec 2025.</tspan></text>
  <text x="1152" y="44" class="mono muted" font-size="11" letter-spacing="2" text-anchor="end">WEEKLY TOTALS  ·  N = 19</text>
  <line class="rule" x1="48" y1="58" x2="1152" y2="58"/>

  <!-- Grid -->
  <line class="grid" x1="48" y1="90" x2="1152" y2="90"/>
  <line class="grid" x1="48" y1="130" x2="1152" y2="130"/>
  <line class="grid" x1="48" y1="170" x2="1152" y2="170"/>

  <!-- Area fill -->
  <defs>
    <linearGradient id="inkFill" x1="0" y1="0" x2="0" y2="1">
      <stop offset="0%" stop-color="#dfe4eb" stop-opacity="0.20"/>
      <stop offset="100%" stop-color="#dfe4eb" stop-opacity="0"/>
    </linearGradient>
  </defs>
  <path d="M48.0,132.7 L109.3,93.3 L170.7,160.6 L232.0,146.1 L293.3,168.5 L354.7,168.8 L416.0,175.2 L477.3,167.9 L538.7,129.1 L600.0,106.1 L661.3,127.3 L722.7,124.2 L784.0,75.5 L845.3,70.0 L906.7,103.0 L968.0,81.5 L1029.3,91.5 L1090.7,137.6 L1152.0,180.0 L1152.0,180 L48.0,180 Z" fill="url(#inkFill)"/>
  <path class="line" d="M48.0,132.7 L109.3,93.3 L170.7,160.6 L232.0,146.1 L293.3,168.5 L354.7,168.8 L416.0,175.2 L477.3,167.9 L538.7,129.1 L600.0,106.1 L661.3,127.3 L722.7,124.2 L784.0,75.5 L845.3,70.0 L906.7,103.0 L968.0,81.5 L1029.3,91.5 L1090.7,137.6 L1152.0,180.0"/>

  <circle class="dot" cx="845.3" cy="70.0" r="2.5"/>
  <circle class="dot" cx="784.0" cy="75.5" r="2.5"/>
  <circle class="dot" cx="1152.0" cy="180.0" r="3.5" stroke="#0a0d13" stroke-width="2"/>

  <!-- X axis -->
  <text x="48" y="200" class="mono sub-tan" font-size="10" letter-spacing="1">DEC</text>
  <text x="232" y="200" class="mono sub-tan" font-size="10" letter-spacing="1">JAN</text>
  <text x="416" y="200" class="mono sub-tan" font-size="10" letter-spacing="1">FEB</text>
  <text x="600" y="200" class="mono sub-tan" font-size="10" letter-spacing="1" text-anchor="middle">MAR</text>
  <text x="784" y="200" class="mono sub-tan" font-size="10" letter-spacing="1">MAR</text>
  <text x="968" y="200" class="mono sub-tan" font-size="10" letter-spacing="1">APR</text>
  <text x="1152" y="200" class="mono sub-tan" font-size="10" letter-spacing="1" text-anchor="end">TODAY</text>
</svg>
