<svg xmlns="http://www.w3.org/2000/svg" width="1200" height="220" viewBox="0 0 1200 220" role="img" aria-labelledby="activity-title">
  <title id="activity-title">Contribution activity since Dec 2025</title>
  <style>
    .bg { fill: #0a0d13; stroke: #1d2129; stroke-width: 1; }
    .ink { fill: #dfe4eb; }
    .muted { fill: #8b9099; }
    .sub-tan { fill: #6d7480; }
    .dot { fill: #e87252; }
    .serif { font-family: "Charter", "Iowan Old Style", "Times New Roman", Georgia, serif; }
    .mono { font-family: ui-monospace, "SF Mono", Consolas, "Liberation Mono", monospace; }
    .rule { stroke: #dfe4eb; stroke-width: 1; }
    .grid { stroke: #dfe4eb; stroke-opacity: 0.12; stroke-dasharray: 2 4; }
    .line { fill: none; stroke: #dfe4eb; stroke-width: 1.4; }
  </style>

  <rect class="bg" x="0.5" y="0.5" width="1199" height="219" rx="6"/>

  <!-- Header -->
  <text x="48" y="44" class="serif ink" font-size="18" font-weight="500">Figure I. <tspan font-style="italic">Contribution activity, since Dec 2025.</tspan></text>
  <text x="1152" y="44" class="mono muted" font-size="11" letter-spacing="2" text-anchor="end">WEEKLY TOTALS  ·  N = 28</text>
  <line class="rule" x1="48" y1="58" x2="1152" y2="58"/>

  <!-- Grid -->
  <line class="grid" x1="48" y1="90" x2="1152" y2="90"/>
  <line class="grid" x1="48" y1="130" x2="1152" y2="130"/>
  <line class="grid" x1="48" y1="170" x2="1152" y2="170"/>

  <!-- Area fill -->
  <defs>
    <linearGradient id="inkFill" x1="0" y1="0" x2="0" y2="1">
      <stop offset="0%" stop-color="#dfe4eb" stop-opacity="0.20"/>
      <stop offset="100%" stop-color="#dfe4eb" stop-opacity="0"/>
    </linearGradient>
  </defs>
  <path d="M48.0,132.7 L88.9,93.3 L129.8,160.6 L170.7,146.1 L211.6,168.5 L252.4,168.8 L293.3,175.2 L334.2,167.9 L375.1,129.1 L416.0,106.1 L456.9,127.3 L497.8,124.2 L538.7,75.5 L579.6,70.0 L620.4,103.0 L661.3,81.8 L702.2,132.1 L743.1,137.9 L784.0,161.8 L824.9,136.7 L865.8,92.1 L906.7,159.1 L947.6,161.2 L988.4,163.0 L1029.3,146.7 L1070.2,162.4 L1111.1,143.0 L1152.0,145.2 L1152.0,180 L48.0,180 Z" fill="url(#inkFill)"/>
  <path class="line" d="M48.0,132.7 L88.9,93.3 L129.8,160.6 L170.7,146.1 L211.6,168.5 L252.4,168.8 L293.3,175.2 L334.2,167.9 L375.1,129.1 L416.0,106.1 L456.9,127.3 L497.8,124.2 L538.7,75.5 L579.6,70.0 L620.4,103.0 L661.3,81.8 L702.2,132.1 L743.1,137.9 L784.0,161.8 L824.9,136.7 L865.8,92.1 L906.7,159.1 L947.6,161.2 L988.4,163.0 L1029.3,146.7 L1070.2,162.4 L1111.1,143.0 L1152.0,145.2"/>

  <circle class="dot" cx="579.6" cy="70.0" r="2.5"/>
  <circle class="dot" cx="538.7" cy="75.5" r="2.5"/>
  <circle class="dot" cx="1152.0" cy="145.2" r="3.5" stroke="#0a0d13" stroke-width="2"/>

  <!-- X axis -->
  <text x="48" y="200" class="mono sub-tan" font-size="10" letter-spacing="1">DEC</text>
  <text x="232" y="200" class="mono sub-tan" font-size="10" letter-spacing="1">JAN</text>
  <text x="416" y="200" class="mono sub-tan" font-size="10" letter-spacing="1">MAR</text>
  <text x="600" y="200" class="mono sub-tan" font-size="10" letter-spacing="1" text-anchor="middle">APR</text>
  <text x="784" y="200" class="mono sub-tan" font-size="10" letter-spacing="1">MAY</text>
  <text x="968" y="200" class="mono sub-tan" font-size="10" letter-spacing="1">JUN</text>
  <text x="1152" y="200" class="mono sub-tan" font-size="10" letter-spacing="1" text-anchor="end">TODAY</text>
</svg>
