<svg xmlns="http://www.w3.org/2000/svg" width="1200" height="220" viewBox="0 0 1200 220" role="img" aria-labelledby="activity-title">
  <title id="activity-title">Contribution activity since Dec 2025</title>
  <style>
    .bg { fill: #fcfaf5; stroke: #eae6da; stroke-width: 1; }
    .ink { fill: #141414; }
    .muted { fill: #555555; }
    .sub-tan { fill: #80735a; }
    .dot { fill: #c94a2a; }
    .serif { font-family: "Charter", "Iowan Old Style", "Times New Roman", Georgia, serif; }
    .mono { font-family: ui-monospace, "SF Mono", Consolas, "Liberation Mono", monospace; }
    .rule { stroke: #141414; stroke-width: 1; }
    .grid { stroke: #141414; stroke-opacity: 0.06; stroke-dasharray: 2 4; }
    .line { fill: none; stroke: #141414; stroke-width: 1.4; }
  </style>

  <rect class="bg" x="0.5" y="0.5" width="1199" height="219" rx="6"/>

  <!-- Header -->
  <text x="48" y="44" class="serif ink" font-size="18" font-weight="500">Figure I. <tspan font-style="italic">Contribution activity, since Dec 2025.</tspan></text>
  <text x="1152" y="44" class="mono muted" font-size="11" letter-spacing="2" text-anchor="end">WEEKLY TOTALS  ·  N = 22</text>
  <line class="rule" x1="48" y1="58" x2="1152" y2="58"/>

  <!-- Grid -->
  <line class="grid" x1="48" y1="90" x2="1152" y2="90"/>
  <line class="grid" x1="48" y1="130" x2="1152" y2="130"/>
  <line class="grid" x1="48" y1="170" x2="1152" y2="170"/>

  <!-- Area fill -->
  <defs>
    <linearGradient id="inkFill" x1="0" y1="0" x2="0" y2="1">
      <stop offset="0%" stop-color="#141414" stop-opacity="0.18"/>
      <stop offset="100%" stop-color="#141414" stop-opacity="0"/>
    </linearGradient>
  </defs>
  <path d="M48.0,132.7 L100.6,93.3 L153.1,160.6 L205.7,146.1 L258.3,168.5 L310.9,168.8 L363.4,175.2 L416.0,167.9 L468.6,129.1 L521.1,106.1 L573.7,127.3 L626.3,124.2 L678.9,75.5 L731.4,70.0 L784.0,103.0 L836.6,81.5 L889.1,91.5 L941.7,137.6 L994.3,161.5 L1046.9,136.7 L1099.4,89.4 L1152.0,159.1 L1152.0,180 L48.0,180 Z" fill="url(#inkFill)"/>
  <path class="line" d="M48.0,132.7 L100.6,93.3 L153.1,160.6 L205.7,146.1 L258.3,168.5 L310.9,168.8 L363.4,175.2 L416.0,167.9 L468.6,129.1 L521.1,106.1 L573.7,127.3 L626.3,124.2 L678.9,75.5 L731.4,70.0 L784.0,103.0 L836.6,81.5 L889.1,91.5 L941.7,137.6 L994.3,161.5 L1046.9,136.7 L1099.4,89.4 L1152.0,159.1"/>

  <circle class="dot" cx="731.4" cy="70.0" r="2.5"/>
  <circle class="dot" cx="678.9" cy="75.5" r="2.5"/>
  <circle class="dot" cx="1152.0" cy="159.1" r="3.5" stroke="#fcfaf5" stroke-width="2"/>

  <!-- X axis -->
  <text x="48" y="200" class="mono sub-tan" font-size="10" letter-spacing="1">DEC</text>
  <text x="232" y="200" class="mono sub-tan" font-size="10" letter-spacing="1">JAN</text>
  <text x="416" y="200" class="mono sub-tan" font-size="10" letter-spacing="1">FEB</text>
  <text x="600" y="200" class="mono sub-tan" font-size="10" letter-spacing="1" text-anchor="middle">MAR</text>
  <text x="784" y="200" class="mono sub-tan" font-size="10" letter-spacing="1">APR</text>
  <text x="968" y="200" class="mono sub-tan" font-size="10" letter-spacing="1">MAY</text>
  <text x="1152" y="200" class="mono sub-tan" font-size="10" letter-spacing="1" text-anchor="end">TODAY</text>
</svg>
