<svg xmlns="http://www.w3.org/2000/svg" width="1200" height="360" viewBox="0 0 1200 360" role="img" aria-labelledby="hero-title">
  <title id="hero-title">Edward Yi profile hero</title>
  <style>
    .bg { fill: #fcfaf5; stroke: #eae6da; stroke-width: 1; }
    .ink { fill: #141414; }
    .muted { fill: #555555; }
    .tan { fill: #94876a; }
    .sub-tan { fill: #80735a; }
    .dot { fill: #c94a2a; }
    .serif { font-family: "Charter", "Iowan Old Style", "Times New Roman", Georgia, serif; }
    .mono { font-family: ui-monospace, "SF Mono", Consolas, "Liberation Mono", monospace; }
    .rule { stroke: #141414; stroke-width: 1; }
  </style>

  <rect class="bg" x="0.5" y="0.5" width="1199" height="359" rx="6"/>

  <!-- Top rule -->
  <text class="mono ink" x="48" y="56" font-size="11" letter-spacing="3" text-transform="uppercase">No. 07·15·2026</text>
  <circle class="dot" cx="840" cy="51.5" r="3.5"/>
  <text class="mono ink" x="852" y="56" font-size="11" letter-spacing="3">SHIPPING DAILY</text>
  <text class="mono ink" x="1152" y="56" font-size="11" letter-spacing="3" text-anchor="end">SEOUL</text>
  <line class="rule" x1="48" y1="70" x2="1152" y2="70"/>

  <!-- Left column: byline, name, abstract -->
  <text class="mono muted" x="48" y="112" font-size="11" letter-spacing="2.5">AI ENGINEER  ·  FOUNDER</text>
  <text class="serif ink" x="48" y="184" font-size="64" font-weight="500" letter-spacing="-0.8">Edward Yi</text>

  <!-- Name seal, stamped after the signature. x=352 hugs the rendered width
       of "Edward Yi" at 64px serif; reposition if the name text changes. -->
  <g transform="translate(352,138.5) scale(0.5) rotate(-3 50 50)">
    <rect x="9" y="9" width="82" height="82" rx="7" fill="#c03a2b"/>
    <rect x="17" y="17" width="66" height="66" rx="3" fill="none" stroke="#f6efe0" stroke-opacity="0.5" stroke-width="2.5"/>
    <path d="M63.4 37.7Q63.6 37.4 63.9 37.1Q64.2 36.7 64.4 36.4Q64.7 36.1 64.9 36.1Q65.1 36.1 66.2 36.9Q67.2 37.7 68.2 38.7Q69.1 39.6 69.1 39.9Q69 40.6 68 40.6H53.6Q56.2 43.5 60.8 45.7Q65.3 48 70 49.3L69.9 49.7Q67.6 50.2 66.7 53.4Q62.2 51.2 58.4 47.9Q54.6 44.6 52.4 40.6H51.9V43.8Q52 47.8 52.2 50Q51.9 50.5 50.8 50.9Q49.7 51.4 48.6 51.4Q48.1 51.4 47.9 51.1Q47.6 50.8 47.6 50.5Q47.8 48.7 47.9 45.9V43.1Q44.7 46.5 40.2 49.3Q35.7 52 30.4 53.9L30 53.3Q34.4 51 38.3 47.6Q42.2 44.2 44.9 40.6H38.4Q35.3 40.6 31.8 41.2L30.6 39Q33.1 39.2 36.5 39.3H47.9Q47.9 35.1 47.4 32.5Q50.6 33.2 51.8 33.7Q53 34.1 53 34.4Q53 34.7 52.6 34.9L51.9 35.4V39.3H62.3ZM57.9 51.8Q58.1 51.6 58.5 51.1Q59 50.7 59.2 50.7Q59.5 50.7 60.4 51.4Q61.3 52.2 62 53.1Q62.8 54 62.8 54.3Q62.5 54.5 62.1 54.6Q61.8 54.7 61.1 54.7Q59.7 55.5 57.6 56.4Q55.5 57.2 53.3 57.9Q53.2 58.2 52.9 58.4Q52.6 58.6 51.9 58.8V61H63L64 59.5Q64.2 59.2 64.5 58.8Q64.8 58.3 65 58.1Q65.3 57.9 65.4 57.9Q65.7 57.9 66.8 58.7Q67.8 59.5 68.7 60.4Q69.7 61.3 69.7 61.6Q69.5 62.3 68.5 62.3H51.9V68.4Q51.9 70.1 51.5 71.1Q51.1 72.1 49.9 72.7Q48.7 73.3 46.3 73.5Q46.2 71.6 45.3 70.7Q44.8 70.2 44 69.9Q43.1 69.5 41.6 69.3V68.7Q46.3 69 47.1 69Q47.5 69 47.7 68.8Q47.9 68.7 47.9 68.2V62.3H37.8Q34.7 62.3 31.2 62.9L30.1 60.7Q32.5 60.9 36 61H47.9Q47.9 58.4 47.7 56.9L52 57.5Q54.3 56 56.2 54.1H45.2Q42.1 54.1 38.6 54.7L37.5 52.5Q39.9 52.7 43.4 52.8H57Z" fill="#f6efe0"/>
  </g>

  <text class="mono tan" x="48" y="224" font-size="11" letter-spacing="2.5">ABSTRACT</text>

  <!-- Abstract body, two lines -->
  <text class="serif ink" x="48" y="254" font-size="16" font-style="italic">
    <tspan x="48" dy="0">Building systems where agents ship real work into production.</tspan>
    <tspan x="48" dy="22">9 years leading client delivery and dev teams.</tspan>
  </text>

  <!-- Right column: stats -->
  <line class="rule" x1="780" y1="100" x2="780" y2="300"/>

  <text class="mono ink" x="966" y="128" font-size="11" letter-spacing="2.5" opacity="0.7" text-anchor="middle">DAY STREAK</text>
  <text x="966" y="192" text-anchor="middle">
    <tspan class="serif ink" font-size="54" font-weight="500" letter-spacing="-1.2">150</tspan><tspan class="mono muted" font-size="14" dy="-20" dx="4">d</tspan>
  </text>
  <text class="mono sub-tan" x="966" y="214" font-size="11" text-anchor="middle">current</text>
</svg>
