<svg width="1200" height="320" viewBox="0 0 1200 320" fill="none" xmlns="http://www.w3.org/2000/svg" role="img" aria-labelledby="title desc">
  <title id="title">Edward Yi profile hero</title>
  <desc id="desc">Static hero image for GitHub profile README.</desc>
  <defs>
    <linearGradient id="bg" x1="0" y1="0" x2="1200" y2="320" gradientUnits="userSpaceOnUse">
      <stop stop-color="#0D1117"/>
      <stop offset="0.55" stop-color="#111827"/>
      <stop offset="1" stop-color="#0B1220"/>
    </linearGradient>
    <radialGradient id="glowBlue" cx="0" cy="0" r="1" gradientUnits="userSpaceOnUse" gradientTransform="translate(276 52) rotate(30.6) scale(536.915 255.348)">
      <stop stop-color="#58A6FF" stop-opacity="0.16"/>
      <stop offset="1" stop-color="#58A6FF" stop-opacity="0"/>
    </radialGradient>
    <radialGradient id="glowGreen" cx="0" cy="0" r="1" gradientUnits="userSpaceOnUse" gradientTransform="translate(1042 246) rotate(176.256) scale(268.278 148.511)">
      <stop stop-color="#7EE787" stop-opacity="0.11"/>
      <stop offset="1" stop-color="#7EE787" stop-opacity="0"/>
    </radialGradient>
    <linearGradient id="accent" x1="0" y1="0" x2="1" y2="0">
      <stop stop-color="#58A6FF"/>
      <stop offset="1" stop-color="#7EE787"/>
    </linearGradient>
    <linearGradient id="border" x1="0" y1="0" x2="1200" y2="320" gradientUnits="userSpaceOnUse">
      <stop stop-color="#58A6FF" stop-opacity="0.26"/>
      <stop offset="0.5" stop-color="#58A6FF" stop-opacity="0.08"/>
      <stop offset="1" stop-color="#7EE787" stop-opacity="0.16"/>
    </linearGradient>
    <filter id="blur">
      <feGaussianBlur stdDeviation="44"/>
    </filter>
  </defs>

  <rect width="1200" height="320" rx="24" fill="url(#bg)"/>
  <rect width="1200" height="320" rx="24" fill="url(#glowBlue)"/>
  <rect width="1200" height="320" rx="24" fill="url(#glowGreen)"/>

  <rect x="58" y="48" width="72" height="6" rx="3" fill="url(#accent)"/>
  <text x="58" y="112" fill="#F0F6FC" font-size="60" font-weight="700" font-family="Segoe UI, Arial, sans-serif">Edward Yi</text>
  <text x="58" y="144" fill="#8B949E" font-size="18" font-weight="600" letter-spacing="1.4" font-family="Segoe UI, Arial, sans-serif">AI ENGINEER / FOUNDER</text>

  <text x="58" y="198" fill="#F0F6FC" font-size="34" font-weight="650" font-family="Segoe UI, Arial, sans-serif">building systems where</text>
  <text x="58" y="236" fill="#F0F6FC" font-size="34" font-weight="650" font-family="Segoe UI, Arial, sans-serif">agents do real work</text>

  <text x="58" y="280" fill="#58A6FF" font-size="18" font-weight="600" font-family="Segoe UI, Arial, sans-serif">Seoul, South Korea</text>
  <text x="238" y="280" fill="#8B949E" font-size="18" font-weight="600" font-family="Segoe UI, Arial, sans-serif">• Python / TypeScript / React</text>

  <rect x="718" y="44" width="420" height="232" rx="24" fill="#0F172A" fill-opacity="0.72" stroke="#1F2937"/>

  <g opacity="0.12">
    <path d="M746 88H1110" stroke="#334155"/>
    <path d="M746 132H1110" stroke="#334155"/>
    <path d="M746 176H1110" stroke="#334155"/>
    <path d="M746 220H1110" stroke="#334155"/>
    <path d="M806 68V244" stroke="#334155"/>
    <path d="M880 68V244" stroke="#334155"/>
    <path d="M954 68V244" stroke="#334155"/>
    <path d="M1028 68V244" stroke="#334155"/>
  </g>

  <circle cx="1000" cy="102" r="88" fill="#58A6FF" opacity="0.13" filter="url(#blur)"/>
  <circle cx="1092" cy="224" r="70" fill="#7EE787" opacity="0.10" filter="url(#blur)"/>

  <text x="748" y="78" fill="#8B949E" font-size="15" font-weight="600" letter-spacing="1.2" font-family="Segoe UI, Arial, sans-serif">FOCUS AREAS</text>

  <path d="M760 182C824 112 886 78 952 82C1014 86 1070 126 1122 190" stroke="#58A6FF" stroke-width="3" stroke-linecap="round" opacity="0.96"/>
  <path d="M760 212C822 182 884 164 946 166C1006 168 1064 194 1116 226" stroke="#7EE787" stroke-width="2.5" stroke-linecap="round" opacity="0.8"/>
  <path d="M760 146C822 108 886 102 948 114C1006 126 1068 164 1120 212" stroke="#C9D1D9" stroke-width="2" stroke-linecap="round" opacity="0.2"/>

  <circle cx="760" cy="182" r="5" fill="#58A6FF"/>
  <circle cx="952" cy="82" r="5" fill="#58A6FF"/>
  <circle cx="1122" cy="190" r="5" fill="#58A6FF"/>
  <circle cx="818" cy="184" r="4.5" fill="#7EE787"/>
  <circle cx="948" cy="166" r="4.5" fill="#7EE787"/>
  <circle cx="1116" cy="226" r="4.5" fill="#7EE787"/>

  <rect x="760" y="220" width="102" height="36" rx="18" fill="#111827" stroke="#30363D"/>
  <rect x="874" y="220" width="90" height="36" rx="18" fill="#111827" stroke="#30363D"/>
  <rect x="976" y="220" width="100" height="36" rx="18" fill="#111827" stroke="#30363D"/>
  <text x="790" y="243" fill="#C9D1D9" font-size="16" font-weight="600" font-family="Segoe UI, Arial, sans-serif">agents</text>
  <text x="903" y="243" fill="#C9D1D9" font-size="16" font-weight="600" font-family="Segoe UI, Arial, sans-serif">tools</text>
  <text x="1006" y="243" fill="#C9D1D9" font-size="16" font-weight="600" font-family="Segoe UI, Arial, sans-serif">health</text>

  <rect x="0.5" y="0.5" width="1199" height="319" rx="23.5" stroke="url(#border)"/>
</svg>
